{"glyphs":{"0":{"ha":856,"x_min":51,"x_max":796,"o":"m 51 454 q 81 645 51 560 q 162 790 111 731 q 281 882 213 850 q 426 914 349 914 q 572 881 504 914 q 690 787 640 847 q 768 640 740 726 q 796 449 796 554 q 763 258 796 343 q 678 113 731 174 q 558 21 625 53 q 421 -11 492 -11 q 283 22 350 -11 q 165 117 217 56 q 82 263 113 178 q 51 454 51 349 m 168 453 q 188 315 168 379 q 242 204 207 251 q 322 129 276 157 q 421 101 368 101 q 519 128 472 101 q 602 201 567 154 q 658 313 638 249 q 679 450 679 376 q 667 561 679 500 q 624 676 654 622 q 546 765 594 729 q 426 801 497 801 q 306 766 356 801 q 226 678 257 731 q 182 564 196 625 q 168 453 168 503 z "},"1":{"ha":379,"x_min":47,"x_max":258,"o":"m 47 790 l 47 903 l 258 903 l 258 0 l 142 0 l 142 790 l 47 790 z "},"2":{"ha":721,"x_min":61,"x_max":689,"o":"m 351 113 l 689 113 l 689 0 l 74 0 q 240 167 160 86 q 383 324 321 249 q 483 472 446 400 q 521 608 521 543 q 504 696 521 660 q 462 756 488 732 q 406 790 436 779 q 351 801 376 801 q 265 783 299 801 q 213 739 232 765 q 185 683 193 713 q 178 632 178 654 q 192 551 178 586 q 232 488 206 515 q 197 452 214 469 q 163 417 181 435 q 120 458 139 432 q 88 513 101 483 q 68 574 75 543 q 61 632 61 606 q 80 739 61 688 q 135 829 99 790 q 226 891 172 868 q 351 914 281 914 q 468 890 415 914 q 558 827 521 867 q 617 735 596 788 q 638 625 638 683 q 613 491 638 556 q 549 363 589 426 q 458 237 510 299 q 351 113 407 175 z "},"3":{"ha":715,"x_min":82,"x_max":608,"o":"m 214 453 q 310 621 263 538 q 407 789 358 704 l 143 789 l 143 903 l 600 903 q 501 738 550 819 q 401 572 451 656 q 485 528 447 556 q 550 465 522 501 q 593 385 578 429 q 608 290 608 340 q 584 173 608 228 q 518 77 560 118 q 422 13 476 36 q 304 -11 367 -11 q 181 16 238 -11 q 82 88 124 43 q 124 127 103 107 q 167 167 146 147 q 227 119 192 136 q 304 101 263 101 q 377 117 343 101 q 437 158 411 132 q 478 217 463 183 q 493 290 493 251 q 478 363 493 329 q 437 422 463 397 q 377 462 411 447 q 304 476 343 476 q 214 453 254 476 z "},"4":{"ha":735,"x_min":51,"x_max":694,"o":"m 443 574 q 364 470 403 521 q 285 367 325 419 l 443 367 l 443 574 m 51 254 q 306 584 179 419 q 560 914 432 749 l 560 367 l 694 367 l 694 254 l 560 254 l 560 0 l 443 0 l 443 254 l 51 254 z "},"5":{"ha":754,"x_min":143,"x_max":656,"o":"m 199 406 l 199 903 l 597 903 l 597 790 l 315 790 l 315 586 q 333 588 324 588 q 351 589 342 589 q 469 566 414 589 q 565 502 524 543 q 631 407 607 461 q 656 290 656 353 q 631 173 656 228 q 565 77 607 118 q 469 13 524 36 q 351 -11 414 -11 q 237 11 290 -11 q 143 74 183 33 q 185 113 164 93 q 228 151 207 132 q 283 115 251 128 q 351 101 315 101 q 424 117 390 101 q 484 158 458 132 q 525 217 510 183 q 540 290 540 251 q 525 363 540 329 q 484 422 510 397 q 424 462 458 447 q 351 476 390 476 q 263 460 303 476 q 199 406 222 444 z "},"6":{"ha":722,"x_min":67,"x_max":672,"o":"m 186 290 q 200 217 186 251 q 239 158 214 183 q 297 117 264 132 q 368 101 331 101 q 441 117 407 101 q 501 158 475 132 q 542 217 526 183 q 557 290 557 251 q 542 363 557 329 q 501 422 526 397 q 441 462 475 447 q 368 476 407 476 q 297 462 331 476 q 239 422 264 447 q 200 363 214 397 q 186 290 186 329 m 67 274 q 109 460 67 374 q 218 622 151 547 q 367 763 285 697 q 526 885 449 828 q 563 840 544 863 q 599 796 581 818 q 446 684 508 736 q 339 588 383 632 q 353 588 346 588 q 368 589 361 589 q 485 566 431 589 q 582 502 540 543 q 648 407 624 461 q 672 290 672 353 q 648 173 672 228 q 582 77 624 118 q 485 13 540 36 q 368 -11 431 -11 q 255 11 308 -11 q 160 72 201 33 q 94 162 119 110 q 67 274 69 214 z "},"7":{"ha":651,"x_min":19,"x_max":593,"o":"m 19 789 l 19 903 l 593 903 q 390 451 492 675 q 188 0 289 228 l 56 0 q 234 394 146 199 q 413 789 322 590 l 19 789 z "},"8":{"ha":708,"x_min":50,"x_max":656,"o":"m 250 692 q 281 618 250 647 q 354 589 311 589 q 428 618 399 589 q 458 692 458 647 q 428 769 458 736 q 354 801 399 801 q 281 769 311 801 q 250 692 250 736 m 169 290 q 183 217 169 251 q 222 158 197 183 q 281 117 247 132 q 351 101 314 101 q 424 117 390 101 q 484 158 458 132 q 525 217 510 183 q 540 290 540 251 q 526 361 540 328 q 487 419 511 394 q 429 460 463 444 q 358 476 396 475 q 283 462 318 476 q 224 422 249 447 q 184 363 199 397 q 169 290 169 329 m 50 290 q 89 437 50 371 q 192 543 128 503 q 148 609 164 571 q 132 692 132 647 q 149 778 132 738 q 197 849 167 818 q 266 897 226 879 q 351 914 306 914 q 438 897 397 914 q 508 849 478 879 q 556 778 539 818 q 574 692 574 738 q 557 609 574 647 q 513 543 540 571 q 616 437 576 503 q 656 290 656 371 q 631 173 656 228 q 565 77 607 118 q 469 13 524 36 q 351 -11 414 -11 q 234 13 289 -11 q 138 77 179 36 q 74 173 97 118 q 50 290 50 228 z "},"9":{"ha":729,"x_min":36,"x_max":642,"o":"m 522 582 q 508 655 522 621 q 469 715 494 689 q 411 756 444 740 q 340 771 378 771 q 267 756 301 771 q 208 715 233 740 q 167 655 182 689 q 151 582 151 621 q 167 509 151 543 q 208 450 182 475 q 267 410 233 425 q 340 396 301 396 q 411 410 378 396 q 469 450 444 425 q 508 509 494 475 q 522 582 522 543 m 642 582 q 598 403 642 488 q 486 244 554 318 q 338 106 418 169 q 182 -12 257 42 q 146 32 164 10 q 110 76 128 54 q 263 188 200 136 q 369 285 325 240 q 355 283 363 283 q 340 283 347 283 q 223 306 278 283 q 126 370 168 329 q 60 465 85 411 q 36 582 36 519 q 60 699 36 644 q 126 795 85 754 q 223 860 168 836 q 340 883 278 883 q 458 859 403 883 q 553 794 513 835 q 618 698 594 753 q 642 582 642 643 z "}," ":{"ha":417,"x_min":0,"x_max":0,"o":""},"t":{"ha":417,"x_min":33,"x_max":401,"o":"m 150 860 l 265 860 l 265 533 l 401 533 l 401 421 l 265 421 l 265 0 l 150 0 l 150 421 l 33 421 l 33 533 l 150 533 l 150 860 z "},"b":{"ha":740,"x_min":114,"x_max":671,"o":"m 554 261 q 509 376 554 331 q 392 421 464 421 q 274 376 319 421 q 229 261 229 331 q 274 147 229 193 q 392 100 319 100 q 509 147 464 100 q 554 261 554 193 m 671 261 q 649 156 671 206 q 590 68 628 106 q 501 9 553 31 q 392 -12 450 -12 q 317 -3 350 -12 q 263 19 285 7 q 228 42 240 31 q 215 57 215 53 l 215 44 l 215 0 l 114 0 l 114 1042 l 229 1042 l 229 503 q 222 481 226 492 q 215 458 218 469 q 229 474 215 463 q 267 499 243 486 q 322 523 290 513 q 392 533 354 533 q 501 512 450 533 q 590 453 553 490 q 649 366 628 415 q 671 261 671 317 z "},"l":{"ha":269,"x_min":81,"x_max":196,"o":"m 196 0 l 81 0 l 81 1042 l 196 1042 l 196 0 z "},"m":{"ha":1106,"x_min":114,"x_max":1032,"o":"m 114 521 l 215 521 l 215 508 q 220 448 218 475 q 225 388 222 421 q 313 492 254 454 q 451 533 372 531 q 574 495 528 533 q 629 394 621 457 q 718 494 660 458 q 853 533 776 531 q 982 490 935 533 q 1032 378 1029 447 l 1032 0 l 917 0 l 917 325 q 890 390 914 363 q 813 419 865 417 q 744 407 776 419 q 686 372 711 394 q 646 319 661 350 q 631 253 631 289 l 631 0 l 515 0 l 515 325 q 488 390 513 363 q 411 419 464 417 q 342 407 375 419 q 285 372 310 394 q 244 319 260 350 q 229 253 229 289 l 229 0 l 114 0 l 114 521 z "},"i":{"ha":278,"x_min":68,"x_max":211,"o":"m 68 722 q 90 775 68 754 q 140 796 113 796 q 189 775 167 796 q 211 722 211 754 q 189 670 211 690 q 140 650 167 650 q 90 670 113 650 q 68 722 68 690 m 196 0 l 81 0 l 81 521 l 196 521 l 196 0 z "},"h":{"ha":729,"x_min":114,"x_max":631,"o":"m 114 1042 l 229 1042 l 229 450 l 225 388 q 314 492 256 456 q 451 533 372 529 q 581 490 533 533 q 631 378 628 447 l 631 0 l 515 0 l 515 325 q 488 390 513 363 q 411 419 464 417 q 342 407 375 419 q 285 372 310 394 q 244 319 260 350 q 229 253 229 289 l 229 0 l 114 0 l 114 1042 z "},"c":{"ha":549,"x_min":50,"x_max":504,"o":"m 432 135 q 467 91 450 113 q 501 47 483 69 q 422 3 465 19 q 328 -12 378 -12 q 219 9 269 -12 q 131 68 168 31 q 72 155 93 106 q 50 261 50 204 q 72 367 50 317 q 131 453 93 417 q 219 512 168 490 q 328 533 269 533 q 424 517 379 533 q 504 474 468 501 q 468 431 486 451 q 432 388 450 410 q 328 421 388 421 q 210 376 256 421 q 165 261 165 331 q 210 147 165 193 q 328 100 256 100 q 432 135 389 100 z "},"q":{"ha":711,"x_min":68,"x_max":625,"o":"m 185 261 q 230 147 185 193 q 347 100 275 100 q 465 147 419 100 q 510 261 510 193 q 465 376 510 331 q 347 421 419 421 q 230 376 275 421 q 185 261 185 331 m 68 261 q 90 366 68 317 q 149 453 111 415 q 238 512 186 490 q 347 533 289 533 q 417 522 385 533 q 472 498 449 511 q 510 472 496 485 q 524 456 524 460 q 527 488 525 472 q 529 521 529 504 l 625 521 l 625 -347 l 510 -347 l 510 26 q 517 42 513 33 q 524 57 521 50 q 511 42 524 53 q 476 19 499 31 q 422 -3 454 7 q 347 -12 389 -12 q 238 9 289 -12 q 149 68 186 31 q 90 156 111 106 q 68 261 68 206 z "},"u":{"ha":735,"x_min":114,"x_max":631,"o":"m 631 -12 l 515 -12 l 515 71 l 519 133 q 430 27 492 67 q 293 -12 368 -12 q 164 31 211 -12 q 114 143 117 74 l 114 521 l 229 521 l 229 196 q 256 131 232 158 q 333 101 281 104 q 402 114 369 101 q 460 149 435 126 q 500 201 485 171 q 515 268 515 232 l 515 521 l 631 521 l 631 -12 z "},"r":{"ha":460,"x_min":114,"x_max":425,"o":"m 417 419 q 281 372 332 419 q 229 253 229 325 l 229 0 l 114 0 l 114 521 l 215 521 l 215 508 q 220 448 218 475 q 225 388 222 421 q 267 449 242 422 q 322 495 293 476 q 377 524 350 514 q 425 533 404 533 l 417 419 z "},"e":{"ha":626,"x_min":50,"x_max":572,"o":"m 328 421 q 232 393 272 421 q 175 321 192 365 q 165 272 168 300 q 295 320 231 296 q 425 368 360 344 q 381 406 406 392 q 328 421 357 421 m 572 303 q 384 233 478 268 q 196 164 290 199 q 251 117 217 135 q 328 100 285 100 q 433 144 392 100 l 504 61 q 425 7 469 26 q 328 -12 381 -12 q 219 9 269 -12 q 131 68 168 31 q 72 155 93 106 q 50 261 50 204 q 72 367 50 317 q 131 453 93 417 q 219 512 168 490 q 328 533 269 533 q 410 516 371 533 q 481 468 450 499 q 536 395 513 438 q 572 303 560 353 z "},"p":{"ha":729,"x_min":93,"x_max":650,"o":"m 533 261 q 488 376 533 331 q 371 421 443 421 q 253 376 299 421 q 208 261 208 331 q 253 147 208 193 q 371 100 299 100 q 488 147 443 100 q 533 261 533 193 m 650 261 q 628 156 650 206 q 569 68 607 106 q 481 9 532 31 q 371 -12 429 -12 q 297 -3 329 -12 q 242 19 264 7 q 207 42 219 31 q 194 57 194 53 q 201 42 197 50 q 208 26 206 33 l 208 -347 l 93 -347 l 93 521 l 189 521 q 191 488 189 504 q 194 456 193 472 q 208 472 194 460 q 246 498 222 485 q 301 522 269 511 q 371 533 333 533 q 481 512 429 533 q 569 453 532 490 q 628 366 607 415 q 650 261 650 317 z "},"á":{"ha":765,"x_min":68,"x_max":625,"o":"m 185 261 q 230 147 185 193 q 347 100 275 100 q 465 147 419 100 q 510 261 510 193 q 465 376 510 331 q 347 421 419 421 q 230 376 275 421 q 185 261 185 331 m 68 260 q 90 364 68 314 q 149 451 111 414 q 238 511 186 489 q 347 533 289 533 q 417 522 385 533 q 472 498 449 511 q 510 472 496 485 q 524 456 524 460 q 526 488 524 471 q 529 521 529 504 l 625 521 l 625 0 l 524 0 l 524 44 l 524 57 q 511 42 524 53 q 476 19 499 31 q 422 -3 454 7 q 347 -12 389 -12 q 238 9 289 -12 q 149 68 186 31 q 90 155 111 106 q 68 260 68 204 m 322 665 q 385 758 354 711 q 447 850 415 804 l 564 850 q 484 758 524 804 q 404 665 444 711 l 322 665 z "},"é":{"ha":626,"x_min":50,"x_max":572,"o":"m 328 421 q 232 393 272 421 q 175 321 192 365 q 165 272 168 300 q 295 320 231 296 q 425 368 360 344 q 381 406 406 392 q 328 421 357 421 m 572 303 q 384 233 478 268 q 196 164 290 199 q 251 117 217 135 q 328 100 285 100 q 433 144 392 100 l 504 61 q 425 7 469 26 q 328 -12 381 -12 q 219 9 269 -12 q 131 68 168 31 q 72 155 93 106 q 50 261 50 204 q 72 367 50 317 q 131 453 93 417 q 219 512 168 490 q 328 533 269 533 q 410 516 371 533 q 481 468 450 499 q 536 395 513 438 q 572 303 560 353 m 304 665 q 367 758 336 711 q 429 850 397 804 l 546 850 q 466 758 506 804 q 386 665 426 711 l 304 665 z "},"í":{"ha":269,"x_min":81,"x_max":356,"o":"m 196 0 l 81 0 l 81 521 l 196 521 l 196 0 m 114 665 q 176 758 146 711 q 239 850 207 804 l 356 850 q 276 758 315 804 q 196 665 236 711 l 114 665 z "},"ó":{"ha":651,"x_min":50,"x_max":607,"o":"m 50 261 q 72 367 50 317 q 131 453 93 417 q 219 512 168 490 q 328 533 269 533 q 438 512 386 533 q 526 453 489 490 q 585 367 564 417 q 607 261 607 317 q 585 155 607 204 q 526 68 564 106 q 438 9 489 31 q 328 -12 386 -12 q 219 9 269 -12 q 131 68 168 31 q 72 155 93 106 q 50 261 50 204 m 165 260 q 178 197 165 226 q 212 147 190 168 q 263 113 233 125 q 325 100 292 100 q 388 113 358 100 q 439 147 417 125 q 474 197 461 168 q 486 260 486 226 q 474 322 486 293 q 439 374 461 351 q 388 408 417 396 q 325 421 358 421 q 263 408 292 421 q 212 374 233 396 q 178 322 190 351 q 165 260 165 293 m 321 665 q 383 758 353 711 q 446 850 414 804 l 563 850 q 483 758 522 804 q 403 665 443 711 l 321 665 z "},"ú":{"ha":735,"x_min":114,"x_max":631,"o":"m 631 -12 l 515 -12 l 515 71 l 519 133 q 430 27 492 67 q 293 -12 368 -12 q 164 31 211 -12 q 114 143 117 74 l 114 521 l 229 521 l 229 196 q 256 131 232 158 q 333 101 281 104 q 402 114 369 101 q 460 149 435 126 q 500 201 485 171 q 515 268 515 232 l 515 521 l 631 521 l 631 -12 m 321 665 q 383 758 353 711 q 446 850 414 804 l 563 850 q 483 758 522 804 q 403 665 443 711 l 321 665 z "},"ä":{"ha":765,"x_min":68,"x_max":625,"o":"m 185 261 q 230 147 185 193 q 347 100 275 100 q 465 147 419 100 q 510 261 510 193 q 465 376 510 331 q 347 421 419 421 q 230 376 275 421 q 185 261 185 331 m 68 260 q 90 364 68 314 q 149 451 111 414 q 238 511 186 489 q 347 533 289 533 q 417 522 385 533 q 472 498 449 511 q 510 472 496 485 q 524 456 524 460 q 526 488 524 471 q 529 521 529 504 l 625 521 l 625 0 l 524 0 l 524 44 l 524 57 q 511 42 524 53 q 476 19 499 31 q 422 -3 454 7 q 347 -12 389 -12 q 238 9 289 -12 q 149 68 186 31 q 90 155 111 106 q 68 260 68 204 m 407 722 q 429 775 407 754 q 479 796 451 796 q 528 775 506 796 q 550 722 550 754 q 528 670 550 690 q 479 650 506 650 q 429 670 451 650 q 407 722 407 690 m 176 722 q 199 775 176 754 q 249 796 221 796 q 297 775 275 796 q 319 722 319 754 q 297 670 319 690 q 249 650 275 650 q 199 670 221 650 q 176 722 176 690 z "},"ë":{"ha":626,"x_min":50,"x_max":572,"o":"m 328 421 q 232 393 272 421 q 175 321 192 365 q 165 272 168 300 q 295 320 231 296 q 425 368 360 344 q 381 406 406 392 q 328 421 357 421 m 572 303 q 384 233 478 268 q 196 164 290 199 q 251 117 217 135 q 328 100 285 100 q 433 144 392 100 l 504 61 q 425 7 469 26 q 328 -12 381 -12 q 219 9 269 -12 q 131 68 168 31 q 72 155 93 106 q 50 261 50 204 q 72 367 50 317 q 131 453 93 417 q 219 512 168 490 q 328 533 269 533 q 410 516 371 533 q 481 468 450 499 q 536 395 513 438 q 572 303 560 353 m 363 722 q 385 775 363 754 q 435 796 407 796 q 483 775 461 796 q 506 722 506 754 q 483 670 506 690 q 435 650 461 650 q 385 670 407 650 q 363 722 363 690 m 132 722 q 154 775 132 754 q 204 796 176 796 q 253 775 231 796 q 275 722 275 754 q 253 670 275 690 q 204 650 231 650 q 154 670 176 650 q 132 722 132 690 z "},"ö":{"ha":651,"x_min":50,"x_max":607,"o":"m 50 261 q 72 367 50 317 q 131 453 93 417 q 219 512 168 490 q 328 533 269 533 q 438 512 386 533 q 526 453 489 490 q 585 367 564 417 q 607 261 607 317 q 585 155 607 204 q 526 68 564 106 q 438 9 489 31 q 328 -12 386 -12 q 219 9 269 -12 q 131 68 168 31 q 72 155 93 106 q 50 261 50 204 m 165 260 q 178 197 165 226 q 212 147 190 168 q 263 113 233 125 q 325 100 292 100 q 388 113 358 100 q 439 147 417 125 q 474 197 461 168 q 486 260 486 226 q 474 322 486 293 q 439 374 461 351 q 388 408 417 396 q 325 421 358 421 q 263 408 292 421 q 212 374 233 396 q 178 322 190 351 q 165 260 165 293 m 371 722 q 393 775 371 754 q 443 796 415 796 q 492 775 469 796 q 514 722 514 754 q 492 670 514 690 q 443 650 469 650 q 393 670 415 650 q 371 722 371 690 m 140 722 q 163 775 140 754 q 213 796 185 796 q 261 775 239 796 q 283 722 283 754 q 261 670 283 690 q 213 650 239 650 q 163 670 185 650 q 140 722 140 690 z "},"ü":{"ha":735,"x_min":114,"x_max":631,"o":"m 631 -12 l 515 -12 l 515 71 l 519 133 q 430 27 492 67 q 293 -12 368 -12 q 164 31 211 -12 q 114 143 117 74 l 114 521 l 229 521 l 229 196 q 256 131 232 158 q 333 101 281 104 q 402 114 369 101 q 460 149 435 126 q 500 201 485 171 q 515 268 515 232 l 515 521 l 631 521 l 631 -12 m 408 722 q 431 775 408 754 q 481 796 453 796 q 529 775 507 796 q 551 722 551 754 q 529 670 551 690 q 481 650 507 650 q 431 670 453 650 q 408 722 408 690 m 178 722 q 200 775 178 754 q 250 796 222 796 q 299 775 276 796 q 321 722 321 754 q 299 670 321 690 q 250 650 276 650 q 200 670 222 650 q 178 722 178 690 z "},"à":{"ha":765,"x_min":68,"x_max":625,"o":"m 185 261 q 230 147 185 193 q 347 100 275 100 q 465 147 419 100 q 510 261 510 193 q 465 376 510 331 q 347 421 419 421 q 230 376 275 421 q 185 261 185 331 m 68 260 q 90 364 68 314 q 149 451 111 414 q 238 511 186 489 q 347 533 289 533 q 417 522 385 533 q 472 498 449 511 q 510 472 496 485 q 524 456 524 460 q 526 488 524 471 q 529 521 529 504 l 625 521 l 625 0 l 524 0 l 524 44 l 524 57 q 511 42 524 53 q 476 19 499 31 q 422 -3 454 7 q 347 -12 389 -12 q 238 9 289 -12 q 149 68 186 31 q 90 155 111 106 q 68 260 68 204 m 261 850 q 324 758 293 804 q 386 665 354 711 l 304 665 q 224 758 264 711 q 144 850 185 804 l 261 850 z "},"è":{"ha":626,"x_min":50,"x_max":572,"o":"m 328 421 q 232 393 272 421 q 175 321 192 365 q 165 272 168 300 q 295 320 231 296 q 425 368 360 344 q 381 406 406 392 q 328 421 357 421 m 572 303 q 384 233 478 268 q 196 164 290 199 q 251 117 217 135 q 328 100 285 100 q 433 144 392 100 l 504 61 q 425 7 469 26 q 328 -12 381 -12 q 219 9 269 -12 q 131 68 168 31 q 72 155 93 106 q 50 261 50 204 q 72 367 50 317 q 131 453 93 417 q 219 512 168 490 q 328 533 269 533 q 410 516 371 533 q 481 468 450 499 q 536 395 513 438 q 572 303 560 353 m 197 850 q 260 758 229 804 q 322 665 290 711 l 240 665 q 160 758 200 711 q 81 850 121 804 l 197 850 z "},"ì":{"ha":242,"x_min":-79,"x_max":196,"o":"m 196 0 l 81 0 l 81 521 l 196 521 l 196 0 m 38 850 q 100 758 69 804 q 163 665 131 711 l 81 665 q 1 758 40 711 q -79 850 -39 804 l 38 850 z "},"ò":{"ha":651,"x_min":50,"x_max":607,"o":"m 50 261 q 72 367 50 317 q 131 453 93 417 q 219 512 168 490 q 328 533 269 533 q 438 512 386 533 q 526 453 489 490 q 585 367 564 417 q 607 261 607 317 q 585 155 607 204 q 526 68 564 106 q 438 9 489 31 q 328 -12 386 -12 q 219 9 269 -12 q 131 68 168 31 q 72 155 93 106 q 50 261 50 204 m 165 260 q 178 197 165 226 q 212 147 190 168 q 263 113 233 125 q 325 100 292 100 q 388 113 358 100 q 439 147 417 125 q 474 197 461 168 q 486 260 486 226 q 474 322 486 293 q 439 374 461 351 q 388 408 417 396 q 325 421 358 421 q 263 408 292 421 q 212 374 233 396 q 178 322 190 351 q 165 260 165 293 m 213 850 q 275 758 244 804 q 338 665 306 711 l 256 665 q 176 758 215 711 q 96 850 136 804 l 213 850 z "},"ù":{"ha":735,"x_min":114,"x_max":631,"o":"m 631 -12 l 515 -12 l 515 71 l 519 133 q 430 27 492 67 q 293 -12 368 -12 q 164 31 211 -12 q 114 143 117 74 l 114 521 l 229 521 l 229 196 q 256 131 232 158 q 333 101 281 104 q 402 114 369 101 q 460 149 435 126 q 500 201 485 171 q 515 268 515 232 l 515 521 l 631 521 l 631 -12 m 292 850 q 354 758 324 804 q 417 665 385 711 l 335 665 q 255 758 294 711 q 175 850 215 804 l 292 850 z "},",":{"ha":278,"x_min":3,"x_max":226,"o":"m 226 119 q 167 -24 196 47 q 107 -167 138 -94 l 3 -167 q 56 -24 31 -94 q 110 119 82 47 l 226 119 z "},".":{"ha":226,"x_min":46,"x_max":189,"o":"m 46 72 q 68 125 46 104 q 118 146 90 146 q 167 125 144 146 q 189 72 189 104 q 167 20 189 40 q 118 0 144 0 q 68 20 90 0 q 46 72 46 40 z "},"f":{"ha":456,"x_min":31,"x_max":454,"o":"m 31 421 l 31 533 l 119 533 l 119 718 q 145 856 119 796 q 215 956 171 915 q 322 1019 260 997 q 454 1043 383 1040 l 454 933 q 297 872 358 928 q 235 714 235 817 l 235 533 l 397 533 l 397 421 l 235 421 l 235 0 l 119 0 l 119 421 l 31 421 z "},"å":{"ha":765,"x_min":68,"x_max":625,"o":"m 303 749 q 315 717 303 729 q 347 704 328 704 q 380 717 367 704 q 393 749 393 729 q 380 781 393 768 q 347 794 367 794 q 315 781 328 794 q 303 749 303 768 m 226 750 q 236 797 226 775 q 263 835 246 818 q 301 861 279 851 q 347 871 322 871 q 394 861 372 871 q 432 835 415 851 q 458 797 449 818 q 468 750 468 775 q 458 703 468 725 q 432 665 449 682 q 394 639 415 649 q 347 629 372 629 q 301 639 322 629 q 263 665 279 649 q 236 703 246 682 q 226 750 226 725 m 185 261 q 230 147 185 193 q 347 100 275 100 q 465 147 419 100 q 510 261 510 193 q 465 376 510 331 q 347 421 419 421 q 230 376 275 421 q 185 261 185 331 m 68 260 q 90 364 68 314 q 149 451 111 414 q 238 511 186 489 q 347 533 289 533 q 417 522 385 533 q 472 498 449 511 q 510 472 496 485 q 524 456 524 460 q 526 488 524 471 q 529 521 529 504 l 625 521 l 625 0 l 524 0 l 524 44 l 524 57 q 511 42 524 53 q 476 19 499 31 q 422 -3 454 7 q 347 -12 389 -12 q 238 9 289 -12 q 149 68 186 31 q 90 155 111 106 q 68 260 68 204 z "},"v":{"ha":694,"x_min":75,"x_max":675,"o":"m 375 -32 q 225 244 300 107 q 75 521 150 382 l 190 521 q 239 435 213 479 q 291 346 265 390 q 338 256 317 301 q 375 167 360 211 q 411 256 389 211 q 459 346 433 301 q 510 435 485 390 q 560 521 536 479 l 675 521 q 525 244 600 382 q 375 -32 450 107 z "},"j":{"ha":313,"x_min":29,"x_max":238,"o":"m 94 722 q 117 775 94 754 q 167 796 139 796 q 215 775 193 796 q 238 722 238 754 q 215 670 238 690 q 167 650 193 650 q 117 670 139 650 q 94 722 94 690 m 108 -251 q 69 -208 89 -229 q 29 -165 49 -187 q 85 -96 65 -137 q 104 4 104 -54 l 104 522 q 162 522 133 522 q 219 521 190 521 l 219 0 q 190 -148 219 -85 q 108 -251 161 -211 z "},"s":{"ha":492,"x_min":79,"x_max":432,"o":"m 411 475 q 379 432 396 453 q 347 389 363 411 q 320 408 340 396 q 267 421 300 421 q 222 408 236 421 q 211 372 208 394 q 232 345 214 356 q 274 325 250 335 q 326 303 299 315 q 378 272 354 290 q 417 224 401 253 q 432 153 432 196 q 424 106 432 133 q 397 51 417 78 q 343 7 378 25 q 253 -11 308 -11 q 154 6 201 -11 q 79 54 107 24 q 114 97 97 75 q 149 139 131 118 q 200 110 179 119 q 254 101 221 101 q 265 102 256 101 q 285 108 274 103 q 305 122 296 113 q 315 151 314 132 q 301 190 317 176 q 262 212 286 203 q 208 230 238 221 q 153 255 179 239 q 111 300 128 271 q 94 378 94 329 q 111 450 94 421 q 153 498 128 479 q 207 525 178 517 q 260 533 236 533 q 294 531 274 533 q 335 521 314 528 q 376 503 356 514 q 411 475 396 492 z "},"k":{"ha":624,"x_min":81,"x_max":561,"o":"m 454 533 l 522 465 q 433 381 475 421 q 344 297 392 342 q 453 149 399 222 q 561 0 507 75 l 428 0 q 346 111 388 56 q 264 222 304 167 q 230 190 247 207 q 196 158 213 174 l 196 0 l 81 0 l 81 1042 l 196 1042 l 196 293 q 325 413 263 356 q 454 533 388 471 z "},"y":{"ha":694,"x_min":36,"x_max":676,"o":"m 239 -347 l 124 -347 q 211 -174 168 -260 q 299 0 254 -87 l 36 521 l 151 521 q 262 315 203 419 q 357 103 321 210 q 399 209 375 156 q 451 315 424 263 q 508 419 479 367 q 561 521 536 471 l 676 521 q 458 87 567 303 q 239 -347 349 -129 z "},"ø":{"ha":651,"x_min":50,"x_max":607,"o":"m 165 261 q 189 174 165 213 q 290 292 240 233 q 392 410 340 350 q 328 421 361 421 q 210 376 256 421 q 165 261 165 331 m 328 100 q 445 147 400 100 q 490 261 490 193 q 482 315 490 289 q 458 360 474 340 l 250 118 q 328 100 286 100 m 50 261 q 72 367 50 317 q 131 453 93 417 q 219 512 168 490 q 328 533 269 533 q 467 497 406 533 q 492 527 479 513 q 518 557 506 542 q 549 529 533 543 q 581 501 565 515 q 557 474 569 488 q 533 446 544 460 q 588 362 568 410 q 607 261 607 314 q 585 155 607 204 q 526 68 564 106 q 438 9 489 31 q 328 -12 386 -12 q 247 -1 285 -12 q 176 32 208 11 q 147 -2 161 15 q 118 -36 133 -19 q 86 -10 103 -22 q 54 17 69 3 q 84 51 69 35 q 114 86 99 68 q 67 167 83 122 q 50 261 50 211 z "},"w":{"ha":1072,"x_min":75,"x_max":1011,"o":"m 485 456 q 469 488 476 472 q 453 521 461 504 l 568 521 q 655 345 608 433 q 732 167 701 257 q 809 345 763 257 q 896 521 856 433 l 1011 521 q 872 244 940 382 q 732 -32 803 107 q 638 155 685 63 q 543 342 590 247 q 449 155 496 247 q 354 -32 401 63 q 215 244 283 107 q 75 521 146 382 l 190 521 q 277 345 231 433 q 354 167 324 257 q 416 313 379 242 q 485 456 453 385 z "},"x":{"ha":660,"x_min":29,"x_max":614,"o":"m 235 281 q 147 401 190 342 q 58 521 103 460 l 200 521 q 269 428 235 475 q 338 336 303 382 q 405 428 371 382 q 472 521 439 475 l 614 521 q 512 381 563 450 q 410 240 461 311 q 499 120 454 179 q 589 0 544 61 l 442 0 q 374 92 407 46 q 306 185 340 139 q 238 92 272 139 q 171 0 204 46 l 29 0 q 132 140 81 71 q 235 281 183 210 z "},"z":{"ha":626,"x_min":58,"x_max":565,"o":"m 232 521 l 533 521 l 533 408 q 451 333 489 369 q 377 260 414 296 q 302 188 340 224 q 221 113 264 151 l 565 113 l 565 0 l 58 0 l 58 113 q 140 188 101 151 q 215 261 178 225 q 289 335 251 297 q 371 411 326 372 l 178 411 q 105 436 135 411 q 75 501 75 461 l 75 569 l 190 569 l 190 553 q 199 526 190 531 q 232 521 208 521 z "},"o":{"ha":660,"x_min":50,"x_max":607,"o":"m 50 261 q 72 367 50 317 q 131 453 93 417 q 219 512 168 490 q 328 533 269 533 q 438 512 386 533 q 526 453 489 490 q 585 367 564 417 q 607 261 607 317 q 585 155 607 204 q 526 68 564 106 q 438 9 489 31 q 328 -12 386 -12 q 219 9 269 -12 q 131 68 168 31 q 72 155 93 106 q 50 261 50 204 m 165 260 q 178 197 165 226 q 212 147 190 168 q 263 113 233 125 q 325 100 292 100 q 388 113 358 100 q 439 147 417 125 q 474 197 461 168 q 486 260 486 226 q 474 322 486 293 q 439 374 461 351 q 388 408 417 396 q 325 421 358 421 q 263 408 292 421 q 212 374 233 396 q 178 322 190 351 q 165 260 165 293 z "},"æ":{"ha":874,"x_min":60,"x_max":814,"o":"m 500 339 l 500 308 q 583 339 542 324 q 667 369 625 354 q 623 408 647 393 q 569 422 599 422 q 496 407 529 422 q 500 339 500 378 m 383 189 l 306 189 q 263 188 286 189 q 221 182 240 186 q 189 170 201 178 q 176 150 176 163 q 210 111 176 121 q 281 101 243 101 q 314 102 296 101 q 347 107 332 103 q 373 122 363 111 q 383 153 383 132 l 383 189 m 142 383 q 111 420 126 403 q 81 457 96 438 q 120 487 96 472 q 172 512 144 501 q 229 528 200 522 q 285 535 258 535 q 440 504 393 535 q 569 535 501 535 q 652 517 613 535 q 723 469 692 500 q 778 397 754 439 q 814 304 801 354 q 657 246 735 275 q 500 188 579 217 l 500 182 q 493 117 500 149 q 529 105 510 108 q 569 101 549 101 q 675 146 633 101 l 746 63 q 667 8 711 28 q 569 -11 622 -11 q 433 24 496 -11 q 282 -11 382 -11 q 191 -3 232 -11 q 121 24 150 4 q 76 75 92 43 q 60 156 60 107 q 76 228 60 199 q 122 276 93 258 q 186 301 150 293 q 260 308 222 308 l 383 308 l 383 342 q 380 377 383 363 q 366 402 376 392 q 335 417 356 413 q 283 422 315 422 q 245 419 265 422 q 206 410 225 415 q 169 397 186 404 q 142 383 151 390 z "},"A":{"ha":1028,"x_min":85,"x_max":946,"o":"m 528 715 l 515 761 q 467 626 496 692 q 410 494 438 561 l 621 494 q 574 605 597 550 q 528 715 551 660 m 946 0 l 831 0 q 749 192 790 96 q 668 385 708 289 l 363 385 q 281 192 322 289 q 200 0 240 96 l 85 0 q 300 508 193 256 q 515 1017 407 761 q 731 508 624 761 q 946 0 838 256 z "},"ï":{"ha":376,"x_min":8,"x_max":382,"o":"m 253 0 l 138 0 l 138 521 l 253 521 l 253 0 m 239 722 q 261 775 239 754 q 311 796 283 796 q 360 775 338 796 q 382 722 382 754 q 360 670 382 690 q 311 650 338 650 q 261 670 283 650 q 239 722 239 690 m 8 722 q 31 775 8 754 q 81 796 53 796 q 129 775 107 796 q 151 722 151 754 q 129 670 151 690 q 81 650 107 650 q 31 670 53 650 q 8 722 8 690 z "},"ý":{"ha":678,"x_min":36,"x_max":676,"o":"m 239 -347 l 124 -347 q 211 -174 168 -260 q 299 0 254 -87 l 36 521 l 151 521 q 262 315 203 419 q 357 103 321 210 q 399 209 375 156 q 451 315 424 263 q 508 419 479 367 q 561 521 536 471 l 676 521 q 458 87 567 303 q 239 -347 349 -129 m 335 665 q 397 758 367 711 q 460 850 428 804 l 576 850 q 497 758 536 804 q 417 665 457 711 l 335 665 z "},"ÿ":{"ha":678,"x_min":36,"x_max":676,"o":"m 239 -347 l 124 -347 q 211 -174 168 -260 q 299 0 254 -87 l 36 521 l 151 521 q 262 315 203 419 q 357 103 321 210 q 399 209 375 156 q 451 315 424 263 q 508 419 479 367 q 561 521 536 471 l 676 521 q 458 87 567 303 q 239 -347 349 -129 m 397 722 q 419 775 397 754 q 469 796 442 796 q 518 775 496 796 q 540 722 540 754 q 518 670 540 690 q 469 650 496 650 q 419 670 442 650 q 397 722 397 690 m 167 722 q 189 775 167 754 q 239 796 211 796 q 288 775 265 796 q 310 722 310 754 q 288 670 310 690 q 239 650 265 650 q 189 670 211 650 q 167 722 167 690 z "},"B":{"ha":743,"x_min":81,"x_max":674,"o":"m 196 863 l 196 544 l 346 544 q 476 590 428 544 q 524 711 524 636 q 474 828 524 793 q 343 863 424 863 l 196 863 m 196 435 l 196 110 l 350 110 q 431 119 393 110 q 497 149 468 129 q 542 199 525 169 q 558 268 558 228 q 539 343 558 311 q 488 395 519 375 q 415 425 457 415 q 331 435 374 435 l 196 435 m 81 0 l 81 972 l 335 972 q 459 958 403 972 q 555 915 515 944 q 617 840 594 886 q 639 729 639 793 q 598 578 639 643 q 474 489 557 513 q 549 461 513 481 q 613 411 586 442 q 657 340 640 381 q 674 250 674 300 q 647 141 674 188 q 577 63 621 94 q 476 16 533 32 q 360 0 419 0 l 81 0 z "},"D":{"ha":906,"x_min":83,"x_max":799,"o":"m 83 972 l 310 972 q 499 938 410 972 q 654 840 588 904 q 760 687 721 776 q 799 485 799 597 q 770 317 799 403 q 678 160 742 231 q 512 45 614 90 q 263 0 410 0 l 83 0 l 83 972 m 199 863 l 199 111 l 296 111 q 449 138 378 111 q 572 213 519 164 q 653 331 624 263 q 683 486 683 400 q 653 642 683 572 q 572 760 624 711 q 449 836 519 810 q 296 863 378 863 l 199 863 z "},"E":{"ha":835,"x_min":96,"x_max":714,"o":"m 96 0 l 96 972 l 694 972 l 694 863 l 211 863 l 211 544 l 640 544 l 640 435 l 211 435 l 211 110 l 714 110 l 714 0 l 96 0 z "},"H":{"ha":972,"x_min":108,"x_max":864,"o":"m 108 0 l 108 972 l 224 972 l 224 544 l 749 544 l 749 972 l 864 972 l 864 0 l 749 0 l 749 435 l 224 435 l 224 0 l 108 0 z "},"I":{"ha":386,"x_min":138,"x_max":253,"o":"m 138 972 l 253 972 l 253 0 l 138 0 l 138 972 z "},"J":{"ha":475,"x_min":24,"x_max":358,"o":"m 24 -200 l 24 -90 q 181 -29 119 -85 q 243 129 243 26 l 243 972 l 358 972 l 358 125 q 333 -12 358 47 q 263 -113 307 -72 q 156 -176 218 -154 q 24 -200 94 -199 z "},"K":{"ha":833,"x_min":71,"x_max":807,"o":"m 807 0 l 669 0 q 471 252 569 126 q 272 504 372 378 q 229 463 250 483 q 186 422 208 443 l 186 0 l 71 0 l 71 972 l 186 972 l 186 592 q 184 569 185 581 q 182 547 183 558 q 195 563 189 556 q 208 579 201 571 q 415 776 313 678 q 621 972 517 874 l 763 972 q 556 775 658 872 q 349 578 453 678 q 578 289 464 432 q 807 0 692 146 z "},"M":{"ha":1301,"x_min":139,"x_max":1156,"o":"m 139 1017 q 393 687 267 851 q 647 357 519 522 q 901 687 775 522 q 1156 1017 1028 851 l 1156 0 l 1040 0 l 1040 653 q 1042 675 1042 664 q 1044 697 1043 686 q 850 433 953 561 q 647 174 747 304 q 461 417 554 296 q 275 660 368 538 l 250 697 q 252 675 251 686 q 254 653 253 664 l 254 0 l 139 0 l 139 1017 z "},"N":{"ha":1129,"x_min":139,"x_max":988,"o":"m 988 972 l 988 -44 q 632 333 808 146 q 276 711 456 521 q 263 729 269 721 q 250 747 257 738 q 252 725 251 736 q 254 703 253 714 l 254 0 l 139 0 l 139 1017 q 494 631 318 822 q 850 246 671 440 q 863 228 857 236 q 876 210 869 219 q 874 232 875 221 q 872 254 874 243 l 872 972 l 988 972 z "},"P":{"ha":679,"x_min":81,"x_max":639,"o":"m 196 544 l 317 544 q 417 560 378 544 q 481 600 457 576 q 514 653 504 624 q 524 708 524 682 q 508 767 524 739 q 465 817 492 796 q 399 851 438 839 q 318 864 361 864 l 196 864 l 196 544 m 81 0 l 81 972 l 310 972 q 415 958 357 972 q 522 911 472 943 q 606 829 572 879 q 639 708 639 779 q 564 508 639 582 q 347 433 489 433 l 196 433 l 196 0 l 81 0 z "},"R":{"ha":721,"x_min":81,"x_max":643,"o":"m 196 544 l 317 544 q 417 560 378 544 q 481 600 457 576 q 514 653 504 624 q 524 708 524 682 q 508 767 524 739 q 465 817 492 796 q 399 851 438 839 q 318 864 361 864 l 196 864 l 196 544 m 81 0 l 81 972 l 310 972 q 415 958 357 972 q 522 911 472 943 q 606 829 572 879 q 639 708 639 779 q 587 534 639 604 q 435 442 535 464 l 643 0 l 518 0 l 314 433 l 290 433 l 196 433 l 196 0 l 81 0 z "},"U":{"ha":906,"x_min":106,"x_max":807,"o":"m 456 -11 q 317 10 381 -11 q 206 72 253 31 q 132 174 158 113 q 106 314 106 235 l 106 972 l 221 972 l 221 318 q 238 224 221 265 q 287 156 256 183 q 361 113 318 128 q 456 99 404 99 q 550 113 507 99 q 624 156 593 128 q 674 224 656 183 q 692 318 692 265 l 692 972 l 807 972 l 807 314 q 780 174 807 235 q 706 72 753 113 q 594 10 658 31 q 456 -11 531 -11 z "},"Y":{"ha":886,"x_min":17,"x_max":865,"o":"m 513 374 l 513 0 l 371 0 l 371 375 q 194 674 282 525 q 17 972 106 822 l 158 972 q 292 748 225 860 q 425 524 358 636 q 433 502 429 513 q 440 481 436 492 l 442 481 q 450 502 446 492 q 458 524 454 513 q 591 748 525 636 q 724 972 657 860 l 865 972 q 689 673 776 821 q 513 374 601 525 z "},"~":{"ha":679,"x_min":168,"x_max":610,"o":"m 376 668 q 340 697 356 690 q 304 704 324 704 q 260 692 285 704 q 231 640 235 679 l 168 644 q 182 695 169 672 q 213 734 194 718 q 252 758 231 750 q 294 767 274 767 q 352 754 326 767 q 401 721 378 742 q 438 692 422 699 q 474 685 454 685 q 495 688 483 685 q 518 697 507 690 q 537 717 529 704 q 547 749 544 729 l 610 744 q 596 694 608 717 q 565 656 583 671 q 526 632 547 640 q 483 624 504 624 q 426 636 451 624 q 376 668 400 649 z "},"ñ":{"ha":726,"x_min":114,"x_max":631,"o":"m 114 521 l 215 521 l 215 508 q 220 448 218 475 q 225 388 222 421 q 315 494 253 454 q 451 533 376 533 q 581 490 533 533 q 631 378 628 447 l 631 0 l 515 0 l 515 325 q 488 390 513 363 q 411 419 464 417 q 342 407 375 419 q 285 372 310 394 q 244 319 260 350 q 229 253 229 289 l 229 0 l 114 0 l 114 521 m 385 660 q 348 689 364 682 q 313 696 332 696 q 268 683 293 696 q 239 632 243 671 l 176 636 q 190 687 178 664 q 221 726 203 710 q 260 750 239 742 q 303 758 282 758 q 360 746 335 758 q 410 713 386 733 q 447 683 431 690 q 482 676 463 676 q 503 679 492 676 q 526 689 515 682 q 545 708 538 696 q 556 740 553 721 l 618 736 q 604 685 617 708 q 574 647 592 663 q 534 624 556 632 q 492 615 513 615 q 434 628 460 615 q 385 660 408 640 z "},"F":{"ha":815,"x_min":96,"x_max":694,"o":"m 96 0 l 96 972 l 694 972 l 694 863 l 211 863 l 211 544 l 640 544 l 640 435 l 211 435 l 211 0 l 96 0 z "},"L":{"ha":824,"x_min":96,"x_max":714,"o":"m 96 0 l 96 972 l 211 972 l 211 110 l 714 110 l 714 0 l 96 0 z "},"C":{"ha":931,"x_min":86,"x_max":836,"o":"m 772 150 l 835 58 q 716 8 779 26 q 582 -11 653 -11 q 389 28 479 -11 q 231 134 299 67 q 125 292 164 201 q 86 485 86 382 q 125 678 86 588 q 231 837 164 769 q 389 944 299 904 q 582 983 479 983 q 716 965 653 983 q 836 914 779 947 q 804 867 821 890 q 772 821 788 844 q 682 860 729 846 q 582 874 635 874 q 434 843 503 874 q 313 759 365 813 q 231 635 261 706 q 201 485 201 564 q 231 335 201 406 q 313 212 261 264 q 434 129 365 160 q 582 99 503 99 q 772 150 685 99 z "},"Q":{"ha":1169,"x_min":86,"x_max":1111,"o":"m 201 485 q 231 335 201 406 q 313 212 261 264 q 434 129 365 160 q 582 99 503 99 q 731 129 661 99 q 852 212 800 160 q 935 335 904 264 q 965 485 965 406 q 935 635 965 564 q 852 759 904 706 q 731 843 800 813 q 582 874 661 874 q 434 843 503 874 q 313 759 365 813 q 231 635 261 706 q 201 485 201 564 m 86 485 q 125 678 86 588 q 231 837 164 769 q 389 944 299 904 q 582 983 479 983 q 776 944 685 983 q 934 837 867 904 q 1041 678 1001 769 q 1081 485 1081 588 q 1033 275 1081 372 q 907 110 986 178 l 1111 110 l 1111 0 l 685 0 q 582 -11 632 -11 q 389 28 479 -11 q 231 134 299 67 q 125 292 164 201 q 86 485 86 382 z "},"T":{"ha":768,"x_min":0,"x_max":768,"o":"m 768 972 l 768 863 l 443 863 l 443 0 l 328 0 l 328 863 l 0 863 l 0 972 l 768 972 z "},"‹":{"ha":544,"x_min":163,"x_max":400,"o":"m 400 107 l 163 332 q 281 444 222 389 q 400 556 340 499 l 400 424 q 355 378 376 400 q 310 332 333 356 q 355 285 333 308 q 400 239 376 263 l 400 107 z "},">":{"ha":903,"x_min":161,"x_max":768,"o":"m 161 -19 l 161 138 q 328 234 244 186 q 496 331 413 282 q 328 427 413 379 q 161 524 244 475 l 161 681 q 465 506 314 593 q 768 331 615 418 q 465 156 615 243 q 161 -19 314 68 z "},"<":{"ha":944,"x_min":161,"x_max":768,"o":"m 768 138 l 768 -19 q 465 156 615 68 q 161 331 314 243 q 465 506 314 418 q 768 681 615 593 l 768 524 q 601 427 685 475 q 433 331 517 379 q 601 234 517 282 q 768 138 685 186 z "},"=":{"ha":983,"x_min":139,"x_max":842,"o":"m 842 268 l 842 156 l 139 156 l 139 268 l 842 268 m 842 538 l 842 425 l 139 425 l 139 538 l 842 538 z "},"@":{"ha":1375,"x_min":90,"x_max":1264,"o":"m 511 261 q 556 147 511 193 q 674 100 601 100 q 791 147 746 100 q 836 261 836 193 q 791 376 836 331 q 674 421 746 421 q 556 376 601 421 q 511 261 511 331 m 1264 261 q 1230 138 1258 188 q 1163 58 1201 89 q 1079 13 1124 26 q 997 0 1035 0 l 850 0 l 850 28 l 850 56 q 836 40 849 51 q 801 18 824 29 q 746 -3 778 7 q 674 -12 714 -12 q 564 9 615 -12 q 475 68 513 31 q 416 155 438 106 q 394 260 394 204 q 416 363 394 314 q 475 450 438 413 q 564 509 513 488 q 674 531 615 531 q 741 521 710 531 q 796 498 772 511 q 833 472 819 485 q 850 456 847 460 q 853 488 850 471 q 856 521 856 504 l 951 521 l 951 113 l 997 113 q 1051 120 1025 113 q 1099 145 1078 128 q 1132 191 1119 163 q 1147 261 1144 219 q 1110 446 1147 360 q 1010 597 1074 532 q 861 698 946 661 q 679 735 776 735 q 495 698 581 735 q 345 597 410 661 q 244 446 281 532 q 207 261 207 360 q 244 77 207 163 q 345 -72 281 -8 q 495 -173 410 -136 q 679 -210 581 -210 q 834 -185 761 -210 q 969 -118 907 -161 q 1004 -159 988 -139 q 1039 -200 1021 -179 q 961 -253 1004 -231 q 870 -292 918 -276 q 774 -315 822 -307 q 679 -322 725 -322 q 450 -276 557 -322 q 263 -151 343 -231 q 137 35 183 -72 q 90 263 90 142 q 137 490 90 383 q 263 676 183 597 q 450 801 343 756 q 679 847 557 847 q 907 801 800 847 q 1093 676 1014 756 q 1218 490 1172 597 q 1264 261 1264 383 z "},"?":{"ha":628,"x_min":57,"x_max":607,"o":"m 158 767 q 108 785 133 776 q 57 804 82 794 q 85 872 67 835 q 135 940 103 908 q 215 994 167 972 q 335 1017 264 1017 q 442 995 392 1017 q 528 937 492 974 q 586 851 565 900 q 607 746 607 801 q 570 610 607 668 q 471 506 533 553 q 429 477 451 492 q 388 444 407 463 q 356 399 368 425 q 343 336 343 374 l 343 228 l 226 228 l 226 363 q 240 435 226 407 q 278 484 254 463 q 331 524 301 506 q 392 568 360 543 q 465 650 442 606 q 489 746 489 694 q 447 859 489 814 q 335 904 404 904 q 218 869 257 904 q 158 767 179 835 m 283 0 q 233 20 256 0 q 211 72 211 40 q 233 125 211 104 q 283 146 256 146 q 332 125 310 146 q 354 72 354 104 q 332 20 354 40 q 283 0 310 0 z "},"!":{"ha":279,"x_min":67,"x_max":210,"o":"m 139 0 q 89 21 111 0 q 67 74 67 42 q 89 126 67 106 q 139 146 111 146 q 188 126 165 146 q 210 74 210 106 q 188 21 210 42 q 139 0 165 0 l 139 0 m 81 1042 l 196 1042 l 196 231 l 81 231 l 81 1042 z "},":":{"ha":243,"x_min":46,"x_max":189,"o":"m 46 419 q 68 472 46 451 q 118 493 90 493 q 167 472 144 493 q 189 419 189 451 q 167 367 189 388 q 118 347 144 347 q 68 367 90 347 q 46 419 46 388 m 46 72 q 68 125 46 104 q 118 146 90 146 q 167 125 144 146 q 189 72 189 104 q 167 20 189 40 q 118 0 144 0 q 68 20 90 0 q 46 72 46 40 z "},";":{"ha":279,"x_min":-17,"x_max":232,"o":"m 89 419 q 111 472 89 451 q 161 493 133 493 q 210 472 188 493 q 232 419 232 451 q 210 367 232 388 q 161 347 188 347 q 111 367 133 347 q 89 419 89 388 m 207 119 q 147 -24 176 47 q 88 -167 118 -94 l -17 -167 q 37 -24 11 -94 q 90 119 63 47 l 207 119 z "},"\"":{"ha":465,"x_min":88,"x_max":388,"o":"m 272 656 l 272 1000 l 388 1000 q 385 828 386 913 q 382 656 383 743 l 272 656 m 88 656 l 88 1000 l 203 1000 q 200 828 201 913 q 197 656 199 743 l 88 656 z "},"#":{"ha":793,"x_min":35,"x_max":719,"o":"m 310 515 l 293 374 l 432 374 l 449 515 l 310 515 m 388 0 q 403 131 394 67 q 418 261 411 194 l 279 261 q 264 131 272 194 q 249 0 256 67 l 132 0 q 147 131 139 67 q 163 261 156 194 l 35 261 q 42 317 38 289 q 49 374 46 346 l 176 374 l 193 515 l 67 515 q 72 572 69 543 q 78 628 75 600 l 206 628 q 222 760 214 694 q 239 893 231 826 l 356 893 q 339 760 347 826 q 322 628 331 694 l 461 628 q 478 760 469 694 q 494 893 486 826 l 611 893 q 594 760 603 826 q 578 628 586 694 l 719 628 q 714 572 717 600 q 708 515 711 543 l 565 515 l 549 374 l 690 374 q 683 317 688 346 q 676 261 679 289 l 535 261 q 519 131 528 194 q 504 0 511 67 l 388 0 z "},"%":{"ha":1008,"x_min":125,"x_max":903,"o":"m 664 154 q 681 108 664 126 q 725 90 697 90 q 769 108 753 90 q 786 154 786 126 q 769 199 786 182 q 725 217 753 217 q 681 199 697 217 q 664 154 664 182 m 725 -22 q 656 -8 689 -22 q 599 29 624 6 q 561 85 575 53 q 547 154 547 117 q 561 222 547 190 q 599 278 575 254 q 656 315 624 301 q 725 329 689 329 q 793 315 761 329 q 849 278 825 301 q 888 222 874 254 q 903 154 903 190 q 888 85 903 117 q 849 29 874 53 q 793 -8 825 6 q 725 -22 761 -22 m 242 540 q 258 494 242 513 q 303 476 275 476 q 347 494 331 476 q 364 540 364 513 q 347 585 364 568 q 303 603 331 603 q 258 585 275 603 q 242 540 242 568 m 303 364 q 234 378 267 364 q 177 415 201 392 q 139 471 153 439 q 125 540 125 503 q 139 608 125 576 q 177 664 153 640 q 234 701 201 688 q 303 715 267 715 q 371 701 339 715 q 427 664 403 688 q 466 608 451 640 q 481 540 481 576 q 466 471 481 503 q 427 415 451 439 q 371 378 403 392 q 303 364 339 364 m 242 0 q 449 347 346 175 q 656 694 551 519 l 782 694 q 575 347 678 519 q 368 0 472 175 l 242 0 z "},"’":{"ha":228,"x_min":49,"x_max":178,"o":"m 106 786 q 77 803 90 794 q 49 819 64 811 q 91 888 78 847 q 94 978 104 929 q 131 983 113 981 q 167 988 149 985 q 161 877 178 929 q 106 786 144 825 z "},"(":{"ha":589,"x_min":160,"x_max":490,"o":"m 160 404 q 179 603 160 508 q 231 778 199 697 q 303 924 263 858 q 389 1036 344 990 q 440 1020 414 1028 q 490 1004 465 1013 q 412 896 450 958 q 343 757 374 833 q 294 592 313 681 q 276 404 276 503 q 294 217 276 306 q 343 51 313 128 q 412 -87 374 -25 q 490 -196 450 -150 q 440 -212 465 -204 q 389 -228 414 -219 q 303 -116 344 -182 q 231 31 263 -50 q 179 206 199 111 q 160 404 160 300 z "},")":{"ha":556,"x_min":103,"x_max":433,"o":"m 433 400 q 414 201 433 296 q 363 26 394 107 q 289 -120 331 -54 q 204 -232 247 -186 q 153 -217 179 -225 q 103 -203 128 -210 q 181 -94 143 -157 q 250 44 219 -32 q 299 210 281 121 q 317 397 317 299 q 299 585 317 496 q 250 750 281 674 q 181 889 219 826 q 103 997 143 951 q 153 1015 128 1006 q 204 1032 179 1024 q 289 920 247 986 q 363 774 331 854 q 414 599 394 693 q 433 400 433 504 z "},"*":{"ha":465,"x_min":35,"x_max":438,"o":"m 347 799 l 435 749 q 406 698 419 724 q 376 647 392 672 q 333 673 354 660 q 290 699 313 686 q 290 651 290 675 q 289 603 289 626 l 178 603 l 178 700 q 135 676 157 688 q 93 651 114 664 q 64 702 78 676 q 35 753 50 728 q 78 776 57 764 q 121 800 99 789 q 78 826 100 813 q 36 851 57 839 l 90 947 q 134 922 113 935 q 178 896 156 908 l 178 1000 l 294 1000 q 294 948 294 974 q 293 896 293 922 q 338 921 315 908 q 382 946 360 933 q 410 898 396 922 q 438 850 424 874 q 392 824 414 838 q 347 799 371 811 z "},"+":{"ha":754,"x_min":119,"x_max":619,"o":"m 311 71 l 311 264 l 119 264 l 119 376 l 311 376 l 311 571 l 428 571 l 428 376 l 619 376 l 619 264 l 428 264 l 428 71 l 311 71 z "},"|":{"ha":376,"x_min":126,"x_max":243,"o":"m 126 -322 l 126 972 l 243 972 l 243 -322 l 126 -322 z "},"{":{"ha":444,"x_min":42,"x_max":403,"o":"m 42 356 l 42 468 q 97 488 75 469 q 131 535 118 507 q 147 595 143 563 q 151 656 151 628 l 151 872 q 165 970 151 936 q 200 1019 178 1004 q 252 1035 222 1033 q 315 1036 282 1036 l 403 1036 l 403 924 l 342 924 q 307 918 321 924 q 285 897 293 913 q 273 853 276 881 q 269 781 269 825 l 269 601 q 260 527 269 558 q 238 474 251 496 q 208 437 224 451 q 179 414 193 422 q 208 391 193 406 q 238 353 224 376 q 260 300 251 331 q 269 228 269 269 l 269 49 q 273 -24 269 4 q 285 -68 276 -53 q 307 -89 293 -83 q 342 -94 321 -94 l 403 -94 l 403 -207 l 315 -207 q 253 -206 283 -207 q 201 -190 224 -204 q 165 -142 178 -175 q 151 -43 151 -108 l 151 168 q 147 228 151 196 q 131 289 143 261 q 97 335 118 317 q 42 356 75 354 z "},"}":{"ha":444,"x_min":42,"x_max":403,"o":"m 403 468 l 403 356 q 348 335 369 354 q 315 289 326 317 q 298 228 303 261 q 293 168 293 196 l 293 -43 q 280 -142 293 -108 q 244 -190 267 -175 q 192 -206 222 -204 q 129 -207 163 -207 l 42 -207 l 42 -94 l 103 -94 q 138 -89 124 -94 q 160 -68 151 -83 q 172 -24 168 -53 q 175 49 175 4 l 175 228 q 184 301 175 269 q 207 354 193 332 q 237 391 221 376 q 265 414 253 406 q 235 437 251 422 q 206 474 219 451 q 184 527 193 496 q 175 601 175 558 l 175 781 q 172 853 175 825 q 160 897 168 881 q 138 918 151 913 q 103 924 124 924 l 42 924 l 42 1036 l 129 1036 q 191 1035 161 1036 q 244 1019 221 1033 q 280 971 267 1004 q 293 872 293 938 l 293 656 q 298 595 293 628 q 315 535 303 563 q 348 488 326 507 q 403 468 369 469 z "},"-":{"ha":417,"x_min":74,"x_max":329,"o":"m 74 204 l 74 317 l 329 317 l 329 204 l 74 204 z "},"/":{"ha":528,"x_min":24,"x_max":526,"o":"m 24 -26 q 217 498 121 238 q 410 1022 313 758 l 526 1022 q 333 498 429 758 q 140 -26 238 238 l 24 -26 z "},"\\":{"ha":535,"x_min":0,"x_max":517,"o":"m 131 1022 q 324 498 228 758 q 517 -26 419 238 l 386 -26 q 193 498 289 238 q 0 1022 97 758 l 131 1022 z "},"G":{"ha":961,"x_min":86,"x_max":836,"o":"m 576 307 l 576 417 l 768 417 q 822 397 808 417 q 835 333 835 376 l 835 58 q 716 8 779 26 q 582 -11 653 -11 q 389 28 479 -11 q 231 134 299 67 q 125 292 164 201 q 86 485 86 382 q 125 678 86 588 q 231 837 164 769 q 389 944 299 904 q 582 983 479 983 q 716 965 653 983 q 836 914 779 947 q 804 867 821 890 q 772 821 788 844 q 682 860 729 846 q 582 874 635 874 q 434 843 503 874 q 313 759 365 813 q 231 635 261 706 q 201 485 201 564 q 231 335 201 406 q 313 212 261 264 q 434 129 365 160 q 582 99 503 99 q 719 124 654 99 l 719 265 q 715 298 719 289 q 688 307 710 307 l 576 307 z "},"V":{"ha":1003,"x_min":75,"x_max":936,"o":"m 821 972 l 936 972 q 721 464 828 717 q 506 -44 614 211 q 290 464 397 211 q 75 972 183 717 l 190 972 q 342 615 267 792 q 493 257 417 438 l 506 211 l 518 257 q 669 615 594 438 q 821 972 744 792 z "},"S":{"ha":782,"x_min":64,"x_max":672,"o":"m 624 876 q 591 835 607 856 q 558 793 575 814 q 529 817 547 804 q 488 842 511 831 q 437 860 465 853 q 376 868 408 868 q 257 822 296 868 q 218 714 218 776 q 231 656 218 679 q 266 616 244 632 q 315 589 288 600 q 371 568 342 578 q 469 528 417 551 q 567 470 522 506 q 642 383 613 435 q 672 260 672 332 q 649 147 672 197 q 587 62 626 97 q 494 8 547 26 q 383 -11 442 -11 q 281 3 331 -11 q 189 41 231 18 q 115 92 147 64 q 64 147 82 119 l 136 219 q 179 178 154 200 q 233 139 204 157 q 297 110 263 121 q 372 99 332 99 q 442 109 408 99 q 501 140 475 119 q 542 190 526 160 q 557 261 557 221 q 530 351 557 317 q 463 409 503 386 q 381 446 424 432 q 306 472 338 460 q 246 499 281 482 q 180 544 211 515 q 126 615 149 572 q 103 718 104 657 q 115 810 101 764 q 161 893 129 856 q 246 954 193 931 q 375 978 299 978 q 490 958 431 978 q 624 876 550 939 z "},"Z":{"ha":972,"x_min":113,"x_max":889,"o":"m 292 972 l 849 972 l 849 863 q 551 487 699 674 q 254 111 404 300 l 889 111 l 889 0 l 113 0 l 113 111 q 410 487 263 300 q 707 863 557 674 l 238 863 q 165 888 194 863 q 135 953 135 913 l 135 1021 l 250 1021 l 250 1004 q 259 977 250 982 q 292 972 268 972 z "},"W":{"ha":1539,"x_min":75,"x_max":1454,"o":"m 1339 972 l 1454 972 q 1239 464 1346 717 q 1024 -44 1132 211 l 778 535 q 771 559 775 547 q 764 583 767 571 q 714 426 744 506 q 647 267 683 346 q 574 109 611 188 q 506 -44 538 31 q 290 464 397 211 q 75 972 183 717 l 190 972 q 342 615 267 792 q 493 257 417 438 l 506 211 q 547 335 522 274 q 598 459 571 397 q 653 582 625 521 q 707 703 682 643 q 650 838 679 771 q 593 972 621 904 l 708 972 q 860 615 785 792 q 1011 257 935 438 l 1024 211 l 1036 257 q 1188 615 1113 438 q 1339 972 1263 792 z "},"X":{"ha":972,"x_min":129,"x_max":918,"o":"m 453 496 q 298 734 375 615 q 143 972 221 853 l 285 972 q 398 798 342 885 q 511 624 454 711 q 520 605 515 614 q 529 586 525 596 q 538 605 533 596 q 547 624 543 614 q 660 798 604 711 q 774 972 717 885 l 915 972 q 758 730 836 850 q 600 488 679 610 q 759 244 679 365 q 918 0 839 122 l 775 0 l 542 358 q 532 378 536 368 q 522 397 528 388 q 513 378 518 388 q 504 358 508 368 q 388 179 446 268 q 272 0 331 90 l 129 0 q 291 248 211 125 q 453 496 371 371 z "},"Æ":{"ha":1111,"x_min":83,"x_max":1000,"o":"m 514 476 l 514 761 q 462 618 494 689 q 400 476 429 547 l 514 476 m 83 0 q 289 486 188 244 q 494 972 390 728 l 981 972 l 981 863 l 629 863 l 629 544 l 926 544 l 926 435 l 629 435 l 629 110 l 1000 110 l 1000 0 l 514 0 l 514 367 l 354 367 q 276 183 315 275 q 199 0 238 92 l 83 0 z "},"Ñ":{"ha":1129,"x_min":139,"x_max":988,"o":"m 988 972 l 988 -44 q 632 333 808 146 q 276 711 456 521 q 263 729 269 721 q 250 747 257 738 q 252 725 251 736 q 254 703 253 714 l 254 0 l 139 0 l 139 1017 q 494 631 318 822 q 850 246 671 440 q 863 228 857 236 q 876 210 869 219 q 874 232 875 221 q 872 254 874 243 l 872 972 l 988 972 m 558 1074 q 522 1103 538 1096 q 486 1110 506 1110 q 442 1097 467 1110 q 413 1046 417 1085 l 350 1050 q 364 1101 351 1078 q 394 1140 376 1124 q 434 1164 413 1156 q 476 1172 456 1172 q 534 1160 508 1172 q 583 1126 560 1147 q 620 1097 604 1104 q 656 1090 636 1090 q 677 1093 665 1090 q 700 1103 689 1096 q 719 1122 711 1110 q 729 1154 726 1135 l 792 1150 q 778 1099 790 1122 q 747 1061 765 1076 q 708 1038 729 1046 q 665 1029 686 1029 q 608 1042 633 1029 q 558 1074 582 1054 z "},"Å":{"ha":1028,"x_min":85,"x_max":946,"o":"m 471 1163 q 483 1131 471 1143 q 515 1118 496 1118 q 548 1131 535 1118 q 561 1163 561 1143 q 548 1195 561 1182 q 515 1208 535 1208 q 483 1195 496 1208 q 471 1163 471 1182 m 394 1164 q 404 1210 394 1189 q 431 1249 414 1232 q 469 1275 447 1265 q 515 1285 490 1285 q 562 1275 540 1285 q 600 1249 583 1265 q 626 1210 617 1232 q 636 1164 636 1189 q 626 1117 636 1139 q 600 1079 617 1096 q 562 1053 583 1063 q 515 1043 540 1043 q 469 1053 490 1043 q 431 1079 447 1063 q 404 1117 414 1096 q 394 1164 394 1139 m 528 715 l 515 761 q 467 626 496 692 q 410 494 438 561 l 621 494 q 574 605 597 550 q 528 715 551 660 m 946 0 l 831 0 q 749 192 790 96 q 668 385 708 289 l 363 385 q 281 192 322 289 q 200 0 240 96 l 85 0 q 300 508 193 256 q 515 1017 407 761 q 731 508 624 761 q 946 0 838 256 z "},"Á":{"ha":1028,"x_min":85,"x_max":946,"o":"m 528 715 l 515 761 q 467 626 496 692 q 410 494 438 561 l 621 494 q 574 605 597 550 q 528 715 551 660 m 946 0 l 831 0 q 749 192 790 96 q 668 385 708 289 l 363 385 q 281 192 322 289 q 200 0 240 96 l 85 0 q 300 508 193 256 q 515 1017 407 761 q 731 508 624 761 q 946 0 838 256 m 475 1042 q 538 1134 507 1088 q 600 1226 568 1181 l 717 1226 q 637 1134 676 1181 q 557 1042 597 1088 l 475 1042 z "},"É":{"ha":835,"x_min":96,"x_max":714,"o":"m 96 0 l 96 972 l 694 972 l 694 863 l 211 863 l 211 544 l 640 544 l 640 435 l 211 435 l 211 110 l 714 110 l 714 0 l 96 0 m 365 1042 q 428 1134 397 1088 q 490 1226 458 1181 l 607 1226 q 527 1134 567 1181 q 447 1042 488 1088 l 365 1042 z "},"Í":{"ha":328,"x_min":138,"x_max":413,"o":"m 138 972 l 253 972 l 253 0 l 138 0 l 138 972 m 171 1042 q 233 1134 203 1088 q 296 1226 264 1181 l 413 1226 q 333 1134 372 1181 q 253 1042 293 1088 l 171 1042 z "},"Ó":{"ha":1167,"x_min":83,"x_max":1078,"o":"m 83 485 q 122 677 83 586 q 228 836 161 768 q 386 944 296 904 q 579 983 476 983 q 772 944 681 983 q 931 836 863 904 q 1038 677 999 768 q 1078 485 1078 586 q 1038 292 1078 382 q 931 134 999 201 q 772 28 863 67 q 579 -11 681 -11 q 386 28 476 -11 q 228 134 296 67 q 122 292 161 201 q 83 485 83 382 m 199 485 q 228 334 199 404 q 310 212 258 264 q 432 129 363 160 q 581 99 501 99 q 729 129 660 99 q 851 212 799 160 q 933 334 903 264 q 963 485 963 404 q 933 635 963 565 q 851 758 903 706 q 729 842 799 811 q 581 872 660 872 q 432 842 501 872 q 310 758 363 811 q 228 635 258 706 q 199 485 199 565 m 556 1042 q 618 1134 588 1088 q 681 1226 649 1181 l 797 1226 q 717 1134 757 1181 q 638 1042 678 1088 l 556 1042 z "},"Ú":{"ha":906,"x_min":106,"x_max":807,"o":"m 456 -11 q 317 10 381 -11 q 206 72 253 31 q 132 174 158 113 q 106 314 106 235 l 106 972 l 221 972 l 221 318 q 238 224 221 265 q 287 156 256 183 q 361 113 318 128 q 456 99 404 99 q 550 113 507 99 q 624 156 593 128 q 674 224 656 183 q 692 318 692 265 l 692 972 l 807 972 l 807 314 q 780 174 807 235 q 706 72 753 113 q 594 10 658 31 q 456 -11 531 -11 m 417 1042 q 479 1134 449 1088 q 542 1226 510 1181 l 658 1226 q 578 1134 618 1181 q 499 1042 539 1088 l 417 1042 z "},"Ä":{"ha":1028,"x_min":85,"x_max":946,"o":"m 528 715 l 515 761 q 467 626 496 692 q 410 494 438 561 l 621 494 q 574 605 597 550 q 528 715 551 660 m 946 0 l 831 0 q 749 192 790 96 q 668 385 708 289 l 363 385 q 281 192 322 289 q 200 0 240 96 l 85 0 q 300 508 193 256 q 515 1017 407 761 q 731 508 624 761 q 946 0 838 256 m 560 1125 q 582 1178 560 1157 q 632 1199 604 1199 q 681 1178 658 1199 q 703 1125 703 1157 q 681 1073 703 1093 q 632 1053 658 1053 q 582 1073 604 1053 q 560 1125 560 1093 m 329 1125 q 351 1178 329 1157 q 401 1199 374 1199 q 450 1178 428 1199 q 472 1125 472 1157 q 450 1073 472 1093 q 401 1053 428 1053 q 351 1073 374 1053 q 329 1125 329 1093 z "},"Ë":{"ha":835,"x_min":96,"x_max":714,"o":"m 96 0 l 96 972 l 694 972 l 694 863 l 211 863 l 211 544 l 640 544 l 640 435 l 211 435 l 211 110 l 714 110 l 714 0 l 96 0 m 447 1125 q 469 1178 447 1157 q 519 1199 492 1199 q 568 1178 546 1199 q 590 1125 590 1157 q 568 1073 590 1093 q 519 1053 546 1053 q 469 1073 492 1053 q 447 1125 447 1093 m 217 1125 q 239 1178 217 1157 q 289 1199 261 1199 q 338 1178 315 1199 q 360 1125 360 1157 q 338 1073 360 1093 q 289 1053 315 1053 q 239 1073 261 1053 q 217 1125 217 1093 z "},"Ï":{"ha":328,"x_min":6,"x_max":379,"o":"m 138 972 l 253 972 l 253 0 l 138 0 l 138 972 m 236 1125 q 258 1178 236 1157 q 308 1199 281 1199 q 357 1178 335 1199 q 379 1125 379 1157 q 357 1073 379 1093 q 308 1053 335 1053 q 258 1073 281 1053 q 236 1125 236 1093 m 6 1125 q 28 1178 6 1157 q 78 1199 50 1199 q 126 1178 104 1199 q 149 1125 149 1157 q 126 1073 149 1093 q 78 1053 104 1053 q 28 1073 50 1053 q 6 1125 6 1093 z "},"Ö":{"ha":1165,"x_min":83,"x_max":1078,"o":"m 83 485 q 122 677 83 586 q 228 836 161 768 q 386 944 296 904 q 579 983 476 983 q 772 944 681 983 q 931 836 863 904 q 1038 677 999 768 q 1078 485 1078 586 q 1038 292 1078 382 q 931 134 999 201 q 772 28 863 67 q 579 -11 681 -11 q 386 28 476 -11 q 228 134 296 67 q 122 292 161 201 q 83 485 83 382 m 199 485 q 228 334 199 404 q 310 212 258 264 q 432 129 363 160 q 581 99 501 99 q 729 129 660 99 q 851 212 799 160 q 933 334 903 264 q 963 485 963 404 q 933 635 963 565 q 851 758 903 706 q 729 842 799 811 q 581 872 660 872 q 432 842 501 872 q 310 758 363 811 q 228 635 258 706 q 199 485 199 565 m 625 1125 q 647 1178 625 1157 q 697 1199 669 1199 q 746 1178 724 1199 q 768 1125 768 1157 q 746 1073 768 1093 q 697 1053 724 1053 q 647 1073 669 1053 q 625 1125 625 1093 m 394 1125 q 417 1178 394 1157 q 467 1199 439 1199 q 515 1178 493 1199 q 538 1125 538 1157 q 515 1073 538 1093 q 467 1053 493 1053 q 417 1073 439 1053 q 394 1125 394 1093 z "},"Ü":{"ha":906,"x_min":106,"x_max":807,"o":"m 456 -11 q 317 10 381 -11 q 206 72 253 31 q 132 174 158 113 q 106 314 106 235 l 106 972 l 221 972 l 221 318 q 238 224 221 265 q 287 156 256 183 q 361 113 318 128 q 456 99 404 99 q 550 113 507 99 q 624 156 593 128 q 674 224 656 183 q 692 318 692 265 l 692 972 l 807 972 l 807 314 q 780 174 807 235 q 706 72 753 113 q 594 10 658 31 q 456 -11 531 -11 m 503 1125 q 525 1178 503 1157 q 575 1199 547 1199 q 624 1178 601 1199 q 646 1125 646 1157 q 624 1073 646 1093 q 575 1053 601 1053 q 525 1073 547 1053 q 503 1125 503 1093 m 272 1125 q 294 1178 272 1157 q 344 1199 317 1199 q 393 1178 371 1199 q 415 1125 415 1157 q 393 1073 415 1093 q 344 1053 371 1053 q 294 1073 317 1053 q 272 1125 272 1093 z "},"À":{"ha":1028,"x_min":85,"x_max":946,"o":"m 528 715 l 515 761 q 467 626 496 692 q 410 494 438 561 l 621 494 q 574 605 597 550 q 528 715 551 660 m 946 0 l 831 0 q 749 192 790 96 q 668 385 708 289 l 363 385 q 281 192 322 289 q 200 0 240 96 l 85 0 q 300 508 193 256 q 515 1017 407 761 q 731 508 624 761 q 946 0 838 256 m 415 1226 q 478 1134 447 1181 q 540 1042 508 1088 l 458 1042 q 378 1134 418 1088 q 299 1226 339 1181 l 415 1226 z "},"È":{"ha":835,"x_min":96,"x_max":714,"o":"m 96 0 l 96 972 l 694 972 l 694 863 l 211 863 l 211 544 l 640 544 l 640 435 l 211 435 l 211 110 l 714 110 l 714 0 l 96 0 m 318 1226 q 381 1134 350 1181 q 443 1042 411 1088 l 361 1042 q 281 1134 321 1088 q 201 1226 242 1181 l 318 1226 z "},"Ì":{"ha":328,"x_min":-21,"x_max":253,"o":"m 138 972 l 253 972 l 253 0 l 138 0 l 138 972 m 96 1226 q 158 1134 128 1181 q 221 1042 189 1088 l 139 1042 q 59 1134 99 1088 q -21 1226 19 1181 l 96 1226 z "},"Ò":{"ha":1165,"x_min":83,"x_max":1078,"o":"m 83 485 q 122 677 83 586 q 228 836 161 768 q 386 944 296 904 q 579 983 476 983 q 772 944 681 983 q 931 836 863 904 q 1038 677 999 768 q 1078 485 1078 586 q 1038 292 1078 382 q 931 134 999 201 q 772 28 863 67 q 579 -11 681 -11 q 386 28 476 -11 q 228 134 296 67 q 122 292 161 201 q 83 485 83 382 m 199 485 q 228 334 199 404 q 310 212 258 264 q 432 129 363 160 q 581 99 501 99 q 729 129 660 99 q 851 212 799 160 q 933 334 903 264 q 963 485 963 404 q 933 635 963 565 q 851 758 903 706 q 729 842 799 811 q 581 872 660 872 q 432 842 501 872 q 310 758 363 811 q 228 635 258 706 q 199 485 199 565 m 478 1226 q 540 1134 510 1181 q 603 1042 571 1088 l 521 1042 q 441 1134 481 1088 q 361 1226 401 1181 l 478 1226 z "},"Ù":{"ha":906,"x_min":106,"x_max":807,"o":"m 456 -11 q 317 10 381 -11 q 206 72 253 31 q 132 174 158 113 q 106 314 106 235 l 106 972 l 221 972 l 221 318 q 238 224 221 265 q 287 156 256 183 q 361 113 318 128 q 456 99 404 99 q 550 113 507 99 q 624 156 593 128 q 674 224 656 183 q 692 318 692 265 l 692 972 l 807 972 l 807 314 q 780 174 807 235 q 706 72 753 113 q 594 10 658 31 q 456 -11 531 -11 m 375 1226 q 438 1134 407 1181 q 500 1042 468 1088 l 418 1042 q 338 1134 378 1088 q 258 1226 299 1181 l 375 1226 z "},"Ý":{"ha":886,"x_min":17,"x_max":865,"o":"m 513 374 l 513 0 l 371 0 l 371 375 q 194 674 282 525 q 17 972 106 822 l 158 972 q 292 748 225 860 q 425 524 358 636 q 433 502 429 513 q 440 481 436 492 l 442 481 q 450 502 446 492 q 458 524 454 513 q 591 748 525 636 q 724 972 657 860 l 865 972 q 689 673 776 821 q 513 374 601 525 m 386 1042 q 449 1134 418 1088 q 511 1226 479 1181 l 628 1226 q 548 1134 588 1181 q 468 1042 508 1088 l 386 1042 z "},"¡":{"ha":278,"x_min":67,"x_max":210,"o":"m 139 750 q 89 729 111 750 q 67 676 67 708 q 89 624 67 644 q 139 604 111 604 q 188 624 165 604 q 210 676 210 644 q 188 729 210 708 q 139 750 165 750 l 139 750 m 81 -292 l 196 -292 l 196 519 l 81 519 l 81 -292 z "},"Ø":{"ha":1167,"x_min":86,"x_max":1081,"o":"m 201 485 q 226 347 201 411 q 296 231 251 282 q 544 519 421 376 q 792 808 667 663 q 693 856 746 839 q 582 874 640 874 q 434 843 503 874 q 313 759 365 813 q 231 635 261 706 q 201 485 201 564 m 582 99 q 731 129 661 99 q 852 212 800 160 q 935 335 904 264 q 965 485 965 406 q 940 622 965 557 q 871 738 915 686 q 624 449 746 592 q 376 160 501 306 q 472 115 421 131 q 582 99 524 99 m 86 485 q 125 678 86 588 q 231 837 164 769 q 389 944 299 904 q 582 983 479 983 q 733 960 661 983 q 865 894 804 936 q 910 947 888 921 q 954 999 932 972 q 994 963 974 981 q 1035 928 1015 946 q 990 876 1013 901 q 946 825 968 851 q 1044 671 1008 758 q 1081 485 1081 583 q 1041 292 1081 382 q 934 134 1001 201 q 776 28 867 67 q 582 -11 685 -11 q 433 11 503 -11 q 303 74 363 33 q 261 25 282 50 q 219 -24 240 0 q 179 12 200 -6 q 139 47 158 29 q 180 95 160 71 q 221 143 200 119 q 122 297 158 210 q 86 485 86 385 z "},"¿":{"ha":628,"x_min":43,"x_max":593,"o":"m 492 -18 q 542 -37 517 -28 q 593 -56 568 -46 q 565 -123 583 -86 q 515 -192 547 -160 q 435 -246 483 -224 q 315 -268 386 -268 q 208 -246 258 -268 q 122 -188 158 -225 q 64 -102 85 -151 q 43 3 43 -53 q 80 138 43 81 q 179 243 117 196 q 221 272 199 257 q 263 305 243 286 q 294 349 282 324 q 307 413 307 375 l 307 521 l 424 521 l 424 386 q 410 314 424 342 q 372 265 396 286 q 319 224 349 243 q 258 181 290 206 q 185 99 208 143 q 161 3 161 54 q 203 -110 161 -65 q 315 -156 246 -156 q 432 -121 393 -156 q 492 -18 471 -86 m 367 749 q 417 728 394 749 q 439 676 439 708 q 417 624 439 644 q 367 603 394 603 q 318 624 340 603 q 296 676 296 644 q 318 728 296 708 q 367 749 340 749 z "},"Ã":{"ha":1028,"x_min":85,"x_max":946,"o":"m 528 715 l 515 761 q 467 626 496 692 q 410 494 438 561 l 621 494 q 574 605 597 550 q 528 715 551 660 m 946 0 l 831 0 q 749 192 790 96 q 668 385 708 289 l 363 385 q 281 192 322 289 q 200 0 240 96 l 85 0 q 300 508 193 256 q 515 1017 407 761 q 731 508 624 761 q 946 0 838 256 m 503 1090 q 466 1119 482 1113 q 431 1126 450 1126 q 386 1114 411 1126 q 357 1063 361 1101 l 294 1067 q 308 1117 296 1094 q 339 1156 321 1140 q 378 1181 357 1172 q 421 1189 400 1189 q 478 1176 453 1189 q 528 1143 504 1164 q 565 1114 549 1121 q 600 1107 581 1107 q 622 1110 610 1107 q 644 1119 633 1113 q 663 1139 656 1126 q 674 1171 671 1151 l 736 1167 q 722 1116 735 1139 q 692 1078 710 1093 q 652 1054 674 1063 q 610 1046 631 1046 q 552 1058 578 1046 q 503 1090 526 1071 z "},"Õ":{"ha":1165,"x_min":83,"x_max":1078,"o":"m 83 485 q 122 677 83 586 q 228 836 161 768 q 386 944 296 904 q 579 983 476 983 q 772 944 681 983 q 931 836 863 904 q 1038 677 999 768 q 1078 485 1078 586 q 1038 292 1078 382 q 931 134 999 201 q 772 28 863 67 q 579 -11 681 -11 q 386 28 476 -11 q 228 134 296 67 q 122 292 161 201 q 83 485 83 382 m 199 485 q 228 334 199 404 q 310 212 258 264 q 432 129 363 160 q 581 99 501 99 q 729 129 660 99 q 851 212 799 160 q 933 334 903 264 q 963 485 963 404 q 933 635 963 565 q 851 758 903 706 q 729 842 799 811 q 581 872 660 872 q 432 842 501 872 q 310 758 363 811 q 228 635 258 706 q 199 485 199 565 m 572 1122 q 535 1151 551 1144 q 500 1158 519 1158 q 456 1146 481 1158 q 426 1094 431 1133 l 364 1099 q 378 1149 365 1126 q 408 1188 390 1172 q 448 1213 426 1204 q 490 1221 469 1221 q 548 1208 522 1221 q 597 1175 574 1196 q 634 1146 618 1153 q 669 1139 650 1139 q 691 1142 679 1139 q 714 1151 703 1144 q 733 1171 725 1158 q 743 1203 740 1183 l 806 1199 q 792 1148 804 1171 q 761 1110 779 1125 q 722 1086 743 1094 q 679 1078 700 1078 q 622 1090 647 1078 q 572 1122 596 1103 z "},"â":{"ha":765,"x_min":68,"x_max":625,"o":"m 185 261 q 230 147 185 193 q 347 100 275 100 q 465 147 419 100 q 510 261 510 193 q 465 376 510 331 q 347 421 419 421 q 230 376 275 421 q 185 261 185 331 m 68 260 q 90 364 68 314 q 149 451 111 414 q 238 511 186 489 q 347 533 289 533 q 417 522 385 533 q 472 498 449 511 q 510 472 496 485 q 524 456 524 460 q 526 488 524 471 q 529 521 529 504 l 625 521 l 625 0 l 524 0 l 524 44 l 524 57 q 511 42 524 53 q 476 19 499 31 q 422 -3 454 7 q 347 -12 389 -12 q 238 9 289 -12 q 149 68 186 31 q 90 155 111 106 q 68 260 68 204 m 363 917 q 446 791 404 854 q 529 665 488 728 l 447 665 q 405 715 426 690 q 363 765 383 740 q 320 715 342 740 q 278 665 299 690 l 196 665 q 279 791 238 728 q 363 917 321 854 z "},"ê":{"ha":626,"x_min":50,"x_max":572,"o":"m 328 421 q 232 393 272 421 q 175 321 192 365 q 165 272 168 300 q 295 320 231 296 q 425 368 360 344 q 381 406 406 392 q 328 421 357 421 m 572 303 q 384 233 478 268 q 196 164 290 199 q 251 117 217 135 q 328 100 285 100 q 433 144 392 100 l 504 61 q 425 7 469 26 q 328 -12 381 -12 q 219 9 269 -12 q 131 68 168 31 q 72 155 93 106 q 50 261 50 204 q 72 367 50 317 q 131 453 93 417 q 219 512 168 490 q 328 533 269 533 q 410 516 371 533 q 481 468 450 499 q 536 395 513 438 q 572 303 560 353 m 322 917 q 406 791 364 854 q 489 665 447 728 l 407 665 q 365 715 386 690 q 322 765 343 740 q 280 715 301 740 q 238 665 258 690 l 156 665 q 239 791 197 728 q 322 917 281 854 z "},"î":{"ha":332,"x_min":-6,"x_max":328,"o":"m 219 0 l 104 0 l 104 521 l 219 521 l 219 0 m 161 917 q 244 791 203 854 q 328 665 286 728 l 246 665 q 203 715 225 690 q 161 765 182 740 q 119 715 140 740 q 76 665 97 690 l -6 665 q 78 791 36 728 q 161 917 119 854 z "},"ô":{"ha":651,"x_min":50,"x_max":607,"o":"m 50 261 q 72 367 50 317 q 131 453 93 417 q 219 512 168 490 q 328 533 269 533 q 438 512 386 533 q 526 453 489 490 q 585 367 564 417 q 607 261 607 317 q 585 155 607 204 q 526 68 564 106 q 438 9 489 31 q 328 -12 386 -12 q 219 9 269 -12 q 131 68 168 31 q 72 155 93 106 q 50 261 50 204 m 165 260 q 178 197 165 226 q 212 147 190 168 q 263 113 233 125 q 325 100 292 100 q 388 113 358 100 q 439 147 417 125 q 474 197 461 168 q 486 260 486 226 q 474 322 486 293 q 439 374 461 351 q 388 408 417 396 q 325 421 358 421 q 263 408 292 421 q 212 374 233 396 q 178 322 190 351 q 165 260 165 293 m 322 917 q 406 791 364 854 q 489 665 447 728 l 407 665 q 365 715 386 690 q 322 765 343 740 q 280 715 301 740 q 238 665 258 690 l 156 665 q 239 791 197 728 q 322 917 281 854 z "},"û":{"ha":735,"x_min":114,"x_max":631,"o":"m 631 -12 l 515 -12 l 515 71 l 519 133 q 430 27 492 67 q 293 -12 368 -12 q 164 31 211 -12 q 114 143 117 74 l 114 521 l 229 521 l 229 196 q 256 131 232 158 q 333 101 281 104 q 402 114 369 101 q 460 149 435 126 q 500 201 485 171 q 515 268 515 232 l 515 521 l 631 521 l 631 -12 m 369 917 q 453 791 411 854 q 536 665 494 728 l 454 665 q 412 715 433 690 q 369 765 390 740 q 327 715 349 740 q 285 665 306 690 l 203 665 q 286 791 244 728 q 369 917 328 854 z "},"ã":{"ha":765,"x_min":68,"x_max":625,"o":"m 185 261 q 230 147 185 193 q 347 100 275 100 q 465 147 419 100 q 510 261 510 193 q 465 376 510 331 q 347 421 419 421 q 230 376 275 421 q 185 261 185 331 m 68 260 q 90 364 68 314 q 149 451 111 414 q 238 511 186 489 q 347 533 289 533 q 417 522 385 533 q 472 498 449 511 q 510 472 496 485 q 524 456 524 460 q 526 488 524 471 q 529 521 529 504 l 625 521 l 625 0 l 524 0 l 524 44 l 524 57 q 511 42 524 53 q 476 19 499 31 q 422 -3 454 7 q 347 -12 389 -12 q 238 9 289 -12 q 149 68 186 31 q 90 155 111 106 q 68 260 68 204 m 369 668 q 333 697 349 690 q 297 704 317 704 q 253 692 278 704 q 224 640 228 679 l 161 644 q 175 695 163 672 q 206 734 188 718 q 245 758 224 750 q 288 767 267 767 q 345 754 319 767 q 394 721 371 742 q 431 692 415 699 q 467 685 447 685 q 488 688 476 685 q 511 697 500 690 q 530 717 522 704 q 540 749 538 729 l 603 744 q 589 694 601 717 q 558 656 576 671 q 519 632 540 640 q 476 624 497 624 q 419 636 444 624 q 369 668 393 649 z "},"`":{"ha":278,"x_min":-71,"x_max":171,"o":"m 46 850 q 108 758 78 804 q 171 665 139 711 l 89 665 q 9 758 49 711 q -71 850 -31 804 l 46 850 z "},"^":{"ha":653,"x_min":156,"x_max":489,"o":"m 322 917 q 406 791 364 854 q 489 665 447 728 l 407 665 q 365 715 386 690 q 322 765 343 740 q 280 715 301 740 q 238 665 258 690 l 156 665 q 239 791 197 728 q 322 917 281 854 z "},"õ":{"ha":651,"x_min":50,"x_max":607,"o":"m 50 261 q 72 367 50 317 q 131 453 93 417 q 219 512 168 490 q 328 533 269 533 q 438 512 386 533 q 526 453 489 490 q 585 367 564 417 q 607 261 607 317 q 585 155 607 204 q 526 68 564 106 q 438 9 489 31 q 328 -12 386 -12 q 219 9 269 -12 q 131 68 168 31 q 72 155 93 106 q 50 261 50 204 m 165 260 q 178 197 165 226 q 212 147 190 168 q 263 113 233 125 q 325 100 292 100 q 388 113 358 100 q 439 147 417 125 q 474 197 461 168 q 486 260 486 226 q 474 322 486 293 q 439 374 461 351 q 388 408 417 396 q 325 421 358 421 q 263 408 292 421 q 212 374 233 396 q 178 322 190 351 q 165 260 165 293 m 321 668 q 284 697 300 690 q 249 704 268 704 q 204 692 229 704 q 175 640 179 679 l 113 644 q 126 695 114 672 q 157 734 139 718 q 197 758 175 750 q 239 767 218 767 q 297 754 271 767 q 346 721 322 742 q 383 692 367 699 q 418 685 399 685 q 440 688 428 685 q 463 697 451 690 q 481 717 474 704 q 492 749 489 729 l 554 744 q 540 694 553 717 q 510 656 528 671 q 470 632 492 640 q 428 624 449 624 q 370 636 396 624 q 321 668 344 649 z "},"'":{"ha":226,"x_min":58,"x_max":175,"o":"m 58 656 l 58 1000 l 175 1000 q 172 828 174 913 q 169 656 171 743 l 58 656 z "},"_":{"ha":833,"x_min":139,"x_max":694,"o":"m 694 0 l 139 0 l 139 113 l 694 113 l 694 0 z "},"[":{"ha":469,"x_min":115,"x_max":382,"o":"m 115 -207 l 115 1036 l 382 1036 l 382 924 l 231 924 l 231 -94 l 382 -94 l 382 -207 l 115 -207 z "},"]":{"ha":475,"x_min":82,"x_max":349,"o":"m 349 1036 l 349 -207 l 82 -207 l 82 -94 l 233 -94 l 233 924 l 82 924 l 82 1036 l 349 1036 z "},"°":{"ha":392,"x_min":50,"x_max":331,"o":"m 192 710 q 240 729 219 710 q 260 776 260 749 q 240 824 260 804 q 192 844 219 844 q 144 824 164 844 q 125 776 125 804 q 144 729 125 749 q 192 710 164 710 m 50 778 q 61 832 50 807 q 91 876 72 857 q 136 906 110 894 q 192 917 163 917 q 246 906 221 917 q 290 876 271 894 q 319 832 308 857 q 331 778 331 807 q 319 723 331 749 q 290 678 308 697 q 246 649 271 660 q 192 639 221 639 q 136 649 163 639 q 91 678 110 660 q 61 723 72 697 q 50 778 50 749 z "},"ç":{"ha":549,"x_min":50,"x_max":504,"o":"m 432 135 q 467 91 450 113 q 501 47 483 69 q 421 3 465 19 q 326 -12 376 -12 q 333 -43 326 -32 q 348 -62 339 -54 q 367 -74 357 -69 q 385 -85 376 -79 q 426 -135 414 -107 q 438 -197 438 -162 q 414 -284 438 -244 q 343 -339 390 -324 q 292 -347 319 -347 q 205 -322 244 -347 q 147 -243 165 -296 q 179 -226 163 -235 q 211 -210 196 -218 q 236 -247 218 -232 q 282 -261 254 -261 q 333 -239 315 -261 q 351 -183 351 -217 q 336 -140 351 -156 q 303 -111 321 -124 q 271 -85 286 -99 q 256 -47 256 -71 l 256 -3 q 173 33 211 8 q 108 93 135 58 q 65 171 81 128 q 50 261 50 214 q 72 367 50 317 q 131 453 93 417 q 219 512 168 490 q 328 533 269 533 q 424 517 379 533 q 504 474 468 501 q 468 431 486 451 q 432 388 450 410 q 328 421 388 421 q 210 376 256 421 q 165 261 165 331 q 210 147 165 193 q 328 100 256 100 q 432 135 389 100 z "},"Ç":{"ha":931,"x_min":86,"x_max":836,"o":"m 772 150 l 835 58 q 724 10 782 28 q 601 -11 665 -8 q 608 -42 601 -31 q 622 -62 614 -54 q 641 -74 631 -69 q 660 -85 651 -79 q 701 -135 689 -107 q 713 -197 713 -162 q 703 -253 713 -226 q 676 -301 694 -281 q 630 -335 657 -322 q 567 -347 603 -347 q 480 -322 519 -347 q 422 -243 440 -296 q 454 -226 438 -235 q 486 -210 471 -218 q 511 -247 493 -232 q 557 -261 529 -261 q 608 -239 590 -261 q 626 -183 626 -217 q 611 -140 626 -156 q 578 -111 596 -124 q 546 -85 561 -99 q 531 -47 531 -71 l 531 -8 q 356 43 436 1 q 215 151 275 85 q 120 303 154 217 q 86 485 86 389 q 125 678 86 588 q 231 837 164 769 q 389 944 299 904 q 582 983 479 983 q 716 965 653 983 q 836 914 779 947 q 804 867 821 890 q 772 821 788 844 q 682 860 729 846 q 582 874 635 874 q 434 843 503 874 q 313 759 365 813 q 231 635 261 706 q 201 485 201 564 q 231 335 201 406 q 313 212 261 264 q 434 129 365 160 q 582 99 503 99 q 772 150 685 99 z "},"–":{"ha":707,"x_min":139,"x_max":557,"o":"m 139 242 l 139 354 l 557 354 l 557 242 l 139 242 z "},"—":{"ha":972,"x_min":138,"x_max":835,"o":"m 138 242 l 138 354 l 835 354 l 835 242 l 138 242 z "},"¸":{"ha":628,"x_min":147,"x_max":438,"o":"m 256 0 l 326 0 l 326 -10 q 332 -41 326 -29 q 347 -60 338 -53 q 366 -73 356 -68 q 385 -85 376 -78 q 426 -135 414 -107 q 438 -197 438 -162 q 428 -253 438 -226 q 401 -301 419 -281 q 355 -335 382 -322 q 292 -347 328 -347 q 205 -322 244 -347 q 147 -243 165 -296 q 179 -226 163 -235 q 211 -210 196 -218 q 236 -247 218 -232 q 282 -261 254 -261 q 333 -239 315 -261 q 351 -183 351 -217 q 336 -140 351 -156 q 303 -111 321 -124 q 271 -85 286 -99 q 256 -47 256 -71 l 256 0 z "},"´":{"ha":381,"x_min":139,"x_max":381,"o":"m 139 665 q 201 758 171 711 q 264 850 232 804 l 381 850 q 301 758 340 804 q 221 665 261 711 l 139 665 z "},"¨":{"ha":514,"x_min":68,"x_max":442,"o":"m 299 722 q 321 775 299 754 q 371 796 343 796 q 419 775 397 796 q 442 722 442 754 q 419 670 442 690 q 371 650 397 650 q 321 670 343 650 q 299 722 299 690 m 68 722 q 90 775 68 754 q 140 796 113 796 q 189 775 167 796 q 211 722 211 754 q 189 670 211 690 q 140 650 167 650 q 90 670 113 650 q 68 722 68 690 z "},"Ð":{"ha":897,"x_min":31,"x_max":838,"o":"m 199 429 l 199 110 l 303 110 q 469 136 392 110 q 602 212 546 163 q 690 331 658 261 q 722 486 722 400 q 690 642 722 572 q 602 762 658 713 q 469 838 546 811 q 303 864 392 864 l 199 864 l 199 542 l 450 542 l 450 429 l 199 429 m 83 542 l 83 972 l 294 972 q 503 938 404 972 q 676 841 603 904 q 794 688 750 778 q 838 486 838 597 q 806 318 838 404 q 703 161 774 232 q 518 45 632 90 q 240 0 404 0 l 83 0 l 83 429 l 31 429 l 31 542 l 83 542 z "},"þ":{"ha":774,"x_min":93,"x_max":650,"o":"m 533 261 q 488 376 533 331 q 371 421 443 421 q 253 376 299 421 q 208 261 208 331 q 253 147 208 193 q 371 100 299 100 q 488 147 443 100 q 533 261 533 193 m 650 260 q 628 155 650 204 q 569 68 607 106 q 481 9 532 31 q 371 -12 429 -12 q 297 -3 329 -12 q 242 19 264 7 q 207 42 219 31 q 194 57 194 53 q 201 42 197 50 q 208 26 206 33 l 208 -347 l 93 -347 l 93 1042 l 208 1042 l 208 500 q 201 478 206 489 q 194 456 197 467 q 208 472 194 460 q 246 497 222 483 q 301 520 269 510 q 371 531 333 531 q 481 509 429 531 q 569 450 532 488 q 628 363 607 413 q 650 260 650 314 z "},"ð":{"ha":685,"x_min":71,"x_max":631,"o":"m 189 261 q 202 197 189 226 q 237 147 215 168 q 289 115 258 126 q 356 104 319 103 q 421 119 392 106 q 471 154 450 132 q 503 206 492 176 q 514 269 514 236 q 499 333 513 304 q 465 383 486 363 q 413 415 443 404 q 347 425 382 426 q 230 376 274 422 q 189 261 186 331 m 182 738 q 221 779 201 758 q 260 821 240 800 q 132 949 199 892 q 174 987 153 968 q 217 1025 196 1006 q 342 910 279 976 q 373 944 357 928 q 404 979 389 961 q 444 944 424 961 q 485 908 465 926 q 447 867 465 888 q 410 826 429 847 q 492 701 453 769 q 563 561 532 633 q 611 415 593 489 q 629 274 629 342 q 610 167 631 217 q 554 78 590 117 q 468 17 518 40 q 360 -8 418 -7 q 250 10 301 -10 q 160 67 199 31 q 97 151 121 103 q 72 257 74 200 q 91 363 71 313 q 148 451 111 414 q 235 512 185 489 q 343 536 285 535 q 432 525 388 538 q 387 633 414 581 q 326 733 360 685 q 294 699 311 715 q 263 664 278 682 q 222 701 243 683 q 182 738 201 718 z "},"Þ":{"ha":696,"x_min":139,"x_max":697,"o":"m 254 315 l 375 315 q 476 331 436 315 q 539 371 515 347 q 572 424 563 394 q 582 479 582 453 q 566 538 582 510 q 523 588 550 567 q 458 622 496 610 q 376 635 419 635 l 254 635 l 254 315 m 254 0 l 139 0 l 139 972 l 254 972 l 254 743 l 368 743 q 473 728 415 743 q 581 682 531 714 q 664 600 631 650 q 697 479 697 550 q 622 278 697 353 q 406 204 547 204 l 254 204 l 254 0 z "},"Â":{"ha":1028,"x_min":85,"x_max":946,"o":"m 528 715 l 515 761 q 467 626 496 692 q 410 494 438 561 l 621 494 q 574 605 597 550 q 528 715 551 660 m 946 0 l 831 0 q 749 192 790 96 q 668 385 708 289 l 363 385 q 281 192 322 289 q 200 0 240 96 l 85 0 q 300 508 193 256 q 515 1017 407 761 q 731 508 624 761 q 946 0 838 256 m 515 1293 q 599 1167 557 1231 q 682 1042 640 1104 l 600 1042 q 558 1092 579 1067 q 515 1142 536 1117 q 473 1092 494 1117 q 431 1042 451 1067 l 349 1042 q 432 1167 390 1104 q 515 1293 474 1231 z "},"Ê":{"ha":835,"x_min":96,"x_max":714,"o":"m 96 0 l 96 972 l 694 972 l 694 863 l 211 863 l 211 544 l 640 544 l 640 435 l 211 435 l 211 110 l 714 110 l 714 0 l 96 0 m 417 1293 q 500 1167 458 1231 q 583 1042 542 1104 l 501 1042 q 459 1092 481 1067 q 417 1142 438 1117 q 374 1092 396 1117 q 332 1042 353 1067 l 250 1042 q 333 1167 292 1104 q 417 1293 375 1231 z "},"Î":{"ha":397,"x_min":29,"x_max":363,"o":"m 138 972 l 253 972 l 253 0 l 138 0 l 138 972 m 196 1293 q 279 1167 238 1231 q 363 1042 321 1104 l 281 1042 q 238 1092 260 1067 q 196 1142 217 1117 q 153 1092 175 1117 q 111 1042 132 1067 l 29 1042 q 113 1167 71 1104 q 196 1293 154 1231 z "},"Ô":{"ha":1165,"x_min":83,"x_max":1078,"o":"m 83 485 q 122 677 83 586 q 228 836 161 768 q 386 944 296 904 q 579 983 476 983 q 772 944 681 983 q 931 836 863 904 q 1038 677 999 768 q 1078 485 1078 586 q 1038 292 1078 382 q 931 134 999 201 q 772 28 863 67 q 579 -11 681 -11 q 386 28 476 -11 q 228 134 296 67 q 122 292 161 201 q 83 485 83 382 m 199 485 q 228 334 199 404 q 310 212 258 264 q 432 129 363 160 q 581 99 501 99 q 729 129 660 99 q 851 212 799 160 q 933 334 903 264 q 963 485 963 404 q 933 635 963 565 q 851 758 903 706 q 729 842 799 811 q 581 872 660 872 q 432 842 501 872 q 310 758 363 811 q 228 635 258 706 q 199 485 199 565 m 579 1293 q 663 1167 621 1231 q 746 1042 704 1104 l 664 1042 q 622 1092 643 1067 q 579 1142 600 1117 q 537 1092 558 1117 q 494 1042 515 1067 l 413 1042 q 496 1167 454 1104 q 579 1293 538 1231 z "},"Û":{"ha":906,"x_min":106,"x_max":807,"o":"m 456 -11 q 317 10 381 -11 q 206 72 253 31 q 132 174 158 113 q 106 314 106 235 l 106 972 l 221 972 l 221 318 q 238 224 221 265 q 287 156 256 183 q 361 113 318 128 q 456 99 404 99 q 550 113 507 99 q 624 156 593 128 q 674 224 656 183 q 692 318 692 265 l 692 972 l 807 972 l 807 314 q 780 174 807 235 q 706 72 753 113 q 594 10 658 31 q 456 -11 531 -11 m 453 1294 q 536 1169 494 1232 q 619 1043 578 1106 l 538 1043 q 495 1093 517 1068 q 453 1143 474 1118 q 410 1093 432 1118 q 368 1043 389 1068 l 286 1043 q 369 1169 328 1106 q 453 1294 411 1232 z "},"±":{"ha":728,"x_min":119,"x_max":619,"o":"m 311 293 l 311 486 l 119 486 l 119 599 l 311 599 l 311 793 l 428 793 l 428 599 l 619 599 l 619 486 l 428 486 l 428 293 l 311 293 m 619 139 l 119 139 l 119 251 l 619 251 l 619 139 z "},"$":{"ha":788,"x_min":64,"x_max":672,"o":"m 218 714 q 238 642 218 668 q 289 600 257 615 q 305 592 296 596 q 322 586 314 589 l 322 861 q 244 806 269 846 q 218 714 218 765 m 557 261 q 522 360 557 325 q 439 418 486 396 l 439 108 q 523 161 489 124 q 557 261 557 199 m 624 876 q 591 835 607 856 q 558 793 575 814 q 510 828 540 808 q 439 860 479 849 l 439 543 q 522 502 481 526 q 597 444 564 478 q 651 365 631 410 q 672 260 672 319 q 654 160 672 206 q 605 79 636 114 q 531 23 574 44 q 439 -7 488 1 l 439 -94 l 322 -94 l 322 -6 q 238 17 278 1 q 165 54 199 33 q 106 99 132 75 q 64 147 79 124 l 136 219 q 214 151 168 186 q 322 103 260 115 l 322 461 q 306 468 315 464 q 285 478 296 472 q 227 508 258 490 q 169 553 196 525 q 123 622 142 582 q 103 718 104 661 q 113 801 101 760 q 149 879 124 843 q 217 940 175 915 q 322 974 260 965 l 322 1061 l 439 1061 l 439 972 q 525 942 479 964 q 624 876 571 921 z "},"¢":{"ha":535,"x_min":50,"x_max":504,"o":"m 165 261 q 188 176 165 214 q 249 118 210 139 l 249 401 q 188 345 210 382 q 165 261 165 308 m 432 135 q 467 91 450 113 q 501 47 483 69 q 365 -10 443 -1 l 365 -94 l 249 -94 l 249 0 q 169 38 206 13 q 106 97 132 63 q 65 173 79 131 q 50 261 50 215 q 65 349 50 307 q 106 425 79 390 q 169 485 132 460 q 249 522 206 510 l 249 608 l 365 608 l 365 531 q 440 511 403 525 q 504 474 476 497 q 468 431 486 451 q 432 388 450 410 q 365 417 404 407 l 365 103 q 401 115 383 107 q 432 135 418 124 z "},"•":{"ha":665,"x_min":157,"x_max":510,"o":"m 157 417 q 171 486 157 454 q 208 542 185 518 q 264 581 232 567 q 332 594 296 594 q 401 581 369 594 q 458 542 433 567 q 496 486 482 518 q 510 417 510 454 q 496 347 510 379 q 458 292 482 315 q 401 255 433 268 q 332 242 369 242 q 264 255 296 242 q 208 292 232 268 q 171 347 185 315 q 157 417 157 379 z "},"“":{"ha":346,"x_min":32,"x_max":306,"o":"m 306 819 q 277 803 290 811 q 249 786 264 794 q 193 877 210 825 q 188 988 176 929 q 224 983 206 985 q 260 978 242 981 q 263 888 250 929 q 306 819 276 847 m 161 819 q 133 803 146 811 q 104 786 119 794 q 49 877 65 825 q 43 988 32 929 q 79 983 61 985 q 115 978 97 981 q 119 888 106 929 q 161 819 132 847 z "},"”":{"ha":344,"x_min":15,"x_max":289,"o":"m 72 786 q 44 803 57 794 q 15 819 31 811 q 58 888 44 847 q 61 978 71 929 q 97 983 79 981 q 133 988 115 985 q 128 877 144 929 q 72 786 111 825 m 217 786 q 188 803 201 794 q 160 819 175 811 q 202 888 189 847 q 206 978 215 929 q 242 983 224 981 q 278 988 260 985 q 272 877 289 929 q 217 786 256 825 z "},"‘":{"ha":228,"x_min":32,"x_max":161,"o":"m 161 819 q 133 803 146 811 q 104 786 119 794 q 49 877 65 825 q 43 988 32 929 q 79 983 61 985 q 115 978 97 981 q 119 888 106 929 q 161 819 132 847 z "},"„":{"ha":474,"x_min":26,"x_max":300,"o":"m 83 -74 q 55 -57 68 -65 q 26 -40 42 -49 q 69 28 56 -12 q 72 118 82 69 q 108 123 90 121 q 144 128 126 125 q 139 17 156 69 q 83 -74 122 -35 m 228 -74 q 199 -57 213 -65 q 171 -40 186 -49 q 213 28 200 -12 q 217 118 226 69 q 253 123 235 121 q 289 128 271 125 q 283 17 300 69 q 228 -74 267 -35 z "},"‚":{"ha":203,"x_min":26,"x_max":156,"o":"m 83 -74 q 55 -57 68 -65 q 26 -40 42 -49 q 69 28 56 -12 q 72 118 82 69 q 108 123 90 121 q 144 128 126 125 q 139 17 156 69 q 83 -74 122 -35 z "},"›":{"ha":544,"x_min":163,"x_max":400,"o":"m 163 107 l 400 332 q 281 444 340 389 q 163 556 222 499 l 163 424 q 208 378 186 400 q 253 332 229 356 q 208 285 229 308 q 163 239 186 263 l 163 107 z "},"«":{"ha":835,"x_min":163,"x_max":638,"o":"m 638 107 l 400 332 q 519 444 460 389 q 638 556 578 499 l 638 425 q 592 378 614 401 q 547 332 571 356 q 592 285 571 308 q 638 239 614 263 l 638 107 m 400 107 l 163 332 q 281 444 222 389 q 400 556 340 499 l 400 424 q 355 378 376 400 q 310 332 333 356 q 355 285 333 308 q 400 239 376 263 l 400 107 z "},"»":{"ha":835,"x_min":163,"x_max":638,"o":"m 163 107 l 400 332 q 281 444 340 389 q 163 556 222 499 l 163 425 q 208 378 186 401 q 253 332 229 356 q 208 285 229 308 q 163 239 186 263 l 163 107 m 400 107 l 638 332 q 519 444 578 389 q 400 556 460 499 l 400 424 q 445 378 424 400 q 490 332 467 356 q 445 285 467 308 q 400 239 424 263 l 400 107 z "},"¥":{"ha":886,"x_min":17,"x_max":865,"o":"m 671 251 l 671 139 l 513 139 l 513 0 l 371 0 l 371 139 l 208 139 l 208 251 l 371 251 l 371 365 l 208 365 l 208 478 l 310 478 q 163 725 236 603 q 17 972 90 847 l 158 972 q 292 748 225 860 q 425 524 358 636 q 433 502 429 513 q 440 481 436 492 l 442 481 q 450 502 446 492 q 458 524 454 513 q 591 748 525 636 q 724 972 657 860 l 865 972 q 719 725 792 847 q 574 478 647 603 l 671 478 l 671 365 l 513 365 l 513 251 l 671 251 z "},"©":{"ha":1101,"x_min":190,"x_max":921,"o":"m 556 206 q 678 229 621 206 q 776 294 735 253 q 842 393 818 336 q 865 517 865 450 q 842 642 865 585 q 776 740 818 699 q 678 806 735 782 q 556 829 621 829 q 433 806 490 829 q 335 740 376 782 q 269 642 293 699 q 246 517 246 585 q 269 393 246 450 q 335 294 293 336 q 433 229 376 253 q 556 206 490 206 m 556 154 q 414 182 481 154 q 298 258 347 210 q 219 373 249 307 q 190 517 190 439 q 219 663 190 596 q 298 778 249 729 q 414 853 347 826 q 556 881 481 881 q 697 853 631 881 q 813 778 764 826 q 892 663 863 729 q 921 517 921 596 q 892 373 921 439 q 813 258 863 307 q 697 182 764 210 q 556 154 631 154 m 650 369 l 679 328 q 625 304 654 313 q 564 296 596 296 q 477 314 518 296 q 406 363 436 332 q 358 434 375 393 q 340 521 340 475 q 358 609 340 568 q 406 681 375 650 q 477 728 436 711 q 564 746 518 746 q 679 715 626 746 q 665 694 672 704 q 650 672 657 683 q 564 697 610 697 q 497 683 528 697 q 443 645 467 669 q 406 589 419 621 q 393 521 393 557 q 406 453 393 485 q 443 397 419 421 q 497 360 467 374 q 564 346 528 346 q 650 369 611 346 z "},"®":{"ha":1113,"x_min":190,"x_max":921,"o":"m 556 206 q 678 229 621 206 q 776 294 735 253 q 842 393 818 336 q 865 517 865 450 q 842 642 865 585 q 776 740 818 699 q 678 806 735 782 q 556 829 621 829 q 433 806 490 829 q 335 740 376 782 q 269 642 293 699 q 246 517 246 585 q 269 393 246 450 q 335 294 293 336 q 433 229 376 253 q 556 206 490 206 m 556 154 q 414 182 481 154 q 298 258 347 210 q 219 373 249 307 q 190 517 190 439 q 219 663 190 596 q 298 778 249 729 q 414 853 347 826 q 556 881 481 881 q 697 853 631 881 q 813 778 764 826 q 892 663 863 729 q 921 517 921 596 q 892 373 921 439 q 813 258 863 307 q 697 182 764 210 q 556 154 631 154 m 500 549 l 557 549 q 605 556 586 549 q 635 575 624 564 q 651 600 647 586 q 656 626 656 614 q 627 678 656 656 q 558 700 599 700 l 500 700 l 500 549 m 444 292 l 444 751 l 554 751 q 603 744 576 751 q 654 722 631 738 q 694 683 678 707 q 710 626 710 660 q 685 544 710 578 q 613 500 660 511 q 663 396 638 447 q 711 292 688 344 l 653 292 q 604 394 629 343 q 556 497 579 444 l 544 497 l 500 497 l 500 292 l 444 292 z "},"÷":{"ha":696,"x_min":94,"x_max":594,"o":"m 594 286 l 94 286 l 94 399 l 594 399 l 594 286 m 276 518 q 299 571 276 550 q 349 592 321 592 q 397 571 375 592 q 419 518 419 550 q 397 466 419 486 q 349 446 375 446 q 299 466 321 446 q 276 518 276 486 m 276 171 q 299 224 276 203 q 349 244 321 244 q 397 224 375 244 q 419 171 419 203 q 397 119 419 139 q 349 99 375 99 q 299 119 321 99 q 276 171 276 139 z "},"½":{"ha":1485,"x_min":168,"x_max":1196,"o":"m 168 886 l 168 966 l 318 966 l 318 325 l 235 325 l 235 886 l 168 886 m 957 80 l 1196 80 l 1196 0 l 760 0 q 879 119 821 61 q 980 230 936 176 q 1051 335 1024 284 q 1077 432 1077 385 q 1065 494 1077 468 q 1035 536 1054 519 q 996 561 1017 553 q 957 569 975 569 q 896 556 920 569 q 859 524 873 543 q 840 485 845 506 q 834 449 834 464 q 844 391 834 416 q 873 346 854 366 q 848 321 860 333 q 823 296 836 309 q 793 325 807 307 q 771 364 780 343 q 757 408 761 385 q 752 449 752 430 q 765 524 752 488 q 804 588 778 561 q 869 632 830 616 q 957 649 907 649 q 1040 632 1002 649 q 1104 587 1077 615 q 1145 522 1130 559 q 1160 444 1160 485 q 1143 348 1160 394 q 1097 257 1125 303 q 1033 168 1069 212 q 957 80 997 124 m 356 -26 q 549 498 453 238 q 742 1022 644 758 l 858 1022 q 665 498 761 758 q 472 -26 569 238 l 356 -26 z "},"¼":{"ha":1344,"x_min":168,"x_max":1174,"o":"m 356 -26 q 549 498 453 238 q 742 1022 644 758 l 858 1022 q 665 498 761 758 q 472 -26 569 238 l 356 -26 m 988 427 q 929 350 958 388 q 870 273 900 312 l 988 273 l 988 427 m 697 189 q 885 435 791 312 q 1074 681 979 557 l 1074 273 l 1174 273 l 1174 189 l 1074 189 l 1074 0 l 988 0 l 988 189 l 697 189 m 168 886 l 168 966 l 318 966 l 318 325 l 235 325 l 235 886 l 168 886 z "},"ª":{"ha":813,"x_min":129,"x_max":531,"o":"m 214 613 q 246 531 214 564 q 331 497 279 497 q 416 531 383 497 q 448 613 448 564 q 416 696 448 663 q 331 729 383 729 q 246 696 279 729 q 214 613 214 663 m 130 612 q 145 687 130 651 q 188 751 161 724 q 252 794 215 778 q 331 810 289 810 q 381 802 358 810 q 421 784 404 794 q 448 766 438 775 q 458 754 458 757 q 460 777 458 765 q 462 801 462 789 l 531 801 l 531 425 l 458 425 l 458 457 l 458 466 q 449 455 458 463 q 424 439 440 447 q 385 423 408 430 q 331 416 361 416 q 252 432 289 416 q 188 474 215 447 q 145 537 161 501 q 130 612 130 572 z "},"£":{"ha":797,"x_min":40,"x_max":760,"o":"m 261 113 l 500 113 q 572 116 544 113 q 616 128 600 119 q 638 150 632 136 q 643 185 643 164 l 643 246 q 701 247 672 246 q 760 247 731 247 l 760 118 q 754 71 760 93 q 731 33 749 49 q 681 9 713 18 q 596 0 649 0 l 40 0 l 40 113 l 101 113 q 138 117 124 113 q 160 138 151 122 q 171 180 168 153 q 174 251 174 207 l 174 379 l 83 379 l 83 492 l 174 492 l 174 694 q 254 835 174 790 q 481 881 335 881 q 629 839 574 881 q 713 742 685 797 q 669 716 690 729 q 625 690 647 703 q 609 713 618 700 q 585 739 600 726 q 544 760 569 751 q 481 768 519 768 q 338 749 386 768 q 290 664 290 729 l 290 492 l 453 492 l 453 379 l 290 379 l 290 226 q 287 159 290 186 q 261 113 283 132 z "},"¹":{"ha":379,"x_min":79,"x_max":176,"o":"m 80 920 l 80 972 l 177 972 l 177 557 l 124 557 l 124 920 l 80 920 z "},"¾":{"ha":1772,"x_min":192,"x_max":1450,"o":"m 295 635 q 369 765 332 701 q 444 895 406 829 l 240 895 l 240 983 l 593 983 q 516 855 554 919 q 439 727 478 792 q 504 694 475 714 q 554 645 533 673 q 588 582 576 617 q 599 509 599 548 q 581 418 599 461 q 530 344 562 376 q 455 294 497 313 q 364 276 413 276 q 269 297 313 276 q 193 352 225 318 q 225 383 209 367 q 258 414 242 399 q 305 377 277 390 q 364 363 332 363 q 421 375 394 363 q 467 407 447 387 q 499 453 487 427 q 510 509 510 479 q 499 566 510 539 q 467 611 487 592 q 421 642 447 631 q 364 653 394 653 q 295 635 326 653 m 619 -26 q 813 498 717 238 q 1006 1022 908 758 l 1122 1022 q 929 498 1025 758 q 736 -26 833 238 l 619 -26 m 1264 427 q 1205 350 1234 388 q 1146 273 1176 312 l 1264 273 l 1264 427 m 973 189 q 1162 435 1068 312 q 1351 681 1256 557 l 1351 273 l 1451 273 l 1451 189 l 1351 189 l 1351 0 l 1264 0 l 1264 189 l 973 189 z "},"²":{"ha":553,"x_min":138,"x_max":447,"o":"m 282 576 l 448 576 l 448 521 l 145 521 q 227 603 187 563 q 297 681 267 644 q 347 754 328 718 q 365 821 365 789 q 357 865 365 847 q 336 894 349 882 q 309 911 323 906 q 282 917 294 917 q 239 908 256 917 q 213 886 223 899 q 200 858 204 873 q 196 833 196 844 q 203 793 196 810 q 223 762 210 775 q 206 744 214 753 q 189 727 197 736 q 168 747 177 734 q 152 774 158 760 q 142 804 145 789 q 138 833 138 820 q 148 886 138 860 q 175 930 157 911 q 220 961 193 950 q 282 972 247 972 q 339 961 313 972 q 384 929 365 949 q 413 884 402 910 q 423 830 423 858 q 411 763 423 795 q 379 700 399 731 q 334 638 360 668 q 282 576 309 607 z "},"¶":{"ha":760,"x_min":53,"x_max":621,"o":"m 394 0 l 279 0 l 279 588 q 190 605 232 588 q 118 653 149 622 q 70 725 88 683 q 53 814 53 767 q 70 903 53 861 q 118 975 88 944 q 190 1024 149 1006 q 279 1042 232 1042 l 621 1042 l 621 0 l 506 0 l 506 929 l 394 929 l 394 0 z "},"¬":{"ha":776,"x_min":139,"x_max":639,"o":"m 522 206 l 522 261 l 139 261 l 139 344 l 639 344 l 639 206 l 522 206 z "},"³":{"ha":582,"x_min":107,"x_max":367,"o":"m 172 751 q 220 833 196 792 q 267 916 243 875 l 137 916 l 137 972 l 363 972 q 314 891 338 931 q 265 810 289 851 q 306 788 287 801 q 338 757 324 775 q 359 717 352 739 q 367 671 367 695 q 355 613 367 640 q 322 566 343 586 q 275 534 302 546 q 217 522 248 522 q 156 536 184 522 q 107 571 128 549 q 128 590 117 580 q 149 610 139 600 q 179 586 161 595 q 217 578 196 578 q 253 585 236 578 q 282 605 270 593 q 302 635 295 618 q 310 671 310 652 q 302 707 310 690 q 282 736 295 723 q 253 755 270 748 q 217 762 236 762 q 172 751 192 762 z "},"¦":{"ha":299,"x_min":96,"x_max":213,"o":"m 213 -324 l 96 -324 l 96 163 l 213 163 l 213 -324 m 213 486 l 96 486 l 96 972 l 213 972 l 213 486 z "},"&":{"ha":972,"x_min":146,"x_max":835,"o":"m 261 261 q 306 147 261 193 q 424 100 351 100 q 516 126 476 100 q 574 196 556 153 l 436 421 q 310 378 358 421 q 261 261 261 336 m 703 269 l 703 260 q 696 201 703 232 q 748 117 722 160 q 800 33 774 75 q 755 3 776 18 q 710 -26 733 -11 q 675 31 692 1 q 640 88 658 60 q 546 15 601 42 q 424 -12 490 -12 q 315 9 365 -12 q 226 68 264 31 q 167 155 189 106 q 146 261 146 204 q 163 356 146 311 q 210 435 179 400 q 281 495 240 471 q 369 528 321 519 q 321 608 346 568 q 272 689 296 649 q 237 775 247 731 q 233 862 226 819 q 266 942 240 904 q 338 1008 292 981 q 417 1037 376 1032 q 497 1034 458 1042 q 570 1011 536 1026 q 631 979 604 996 q 608 934 619 956 q 585 889 596 913 q 549 908 571 897 q 504 924 528 918 q 457 929 481 929 q 415 917 433 929 q 352 825 358 881 q 379 715 346 769 q 483 547 432 631 q 586 379 533 464 q 590 420 588 403 q 597 453 593 438 q 625 498 607 483 q 666 517 643 513 q 715 522 689 522 q 769 521 742 521 l 835 521 l 835 408 l 774 408 q 739 403 753 408 q 717 384 725 399 q 706 342 708 369 q 703 269 703 314 z "},"ß":{"ha":796,"x_min":13,"x_max":697,"o":"m 274 13 q 297 64 285 39 q 321 115 310 89 q 393 100 356 100 q 466 115 432 100 q 526 156 500 131 q 567 216 551 182 q 582 289 582 250 q 567 362 582 328 q 525 421 551 396 q 465 460 499 446 q 392 475 431 475 l 390 475 q 390 502 390 489 q 389 531 389 515 l 389 588 q 468 615 436 588 q 500 690 500 642 q 492 733 500 713 q 469 768 483 753 q 436 792 456 783 q 394 800 417 800 q 266 740 315 796 q 217 581 217 683 l 217 0 l 101 0 l 101 464 l 13 464 l 13 576 l 101 576 l 101 588 q 126 723 101 663 q 190 826 150 783 q 283 890 231 868 q 393 913 336 913 q 479 895 439 913 q 550 847 519 878 q 598 776 581 817 q 615 690 615 736 q 599 608 615 646 q 554 542 582 569 q 658 435 618 501 q 697 289 697 369 q 673 172 697 226 q 607 76 649 117 q 510 11 565 35 q 393 -12 456 -12 q 274 13 328 -12 z "},"¤":{"ha":694,"x_min":118,"x_max":571,"o":"m 238 500 q 269 424 238 456 q 344 393 300 393 q 387 401 367 393 q 422 424 407 410 q 444 458 436 439 q 453 500 453 478 q 421 576 453 544 q 344 608 389 608 q 303 600 322 608 q 269 577 283 592 q 246 542 254 563 q 238 500 238 522 m 121 501 q 128 559 121 532 q 150 610 136 586 q 134 626 142 618 q 118 643 126 635 l 200 725 l 233 692 q 286 713 260 704 q 343 721 313 721 q 401 713 374 721 q 454 692 429 706 l 488 725 l 569 643 l 539 613 q 569 501 569 560 q 538 389 569 440 l 571 356 l 489 274 q 471 291 479 282 q 453 308 463 300 q 343 281 404 281 q 235 307 285 281 l 200 272 l 118 354 l 151 388 q 121 501 121 440 z "},"§":{"ha":694,"x_min":160,"x_max":560,"o":"m 269 500 q 295 437 269 463 q 358 411 321 411 q 421 437 394 411 q 447 500 447 463 q 422 563 447 536 q 358 589 396 589 q 296 563 322 589 q 269 500 269 538 m 301 206 q 241 303 263 267 q 208 358 219 339 q 194 383 197 376 q 192 392 192 389 q 166 460 172 424 q 166 533 160 497 q 190 601 172 569 q 236 657 207 633 q 333 694 276 689 q 306 742 318 718 q 278 790 293 765 q 243 869 251 836 q 240 926 235 901 q 262 967 246 950 q 301 997 278 983 q 353 1028 326 1013 q 404 1058 379 1043 q 433 1010 419 1035 q 463 961 447 985 q 435 946 449 954 q 408 931 422 938 q 383 910 392 919 q 373 886 374 900 q 379 853 372 872 q 403 806 386 835 l 404 806 q 466 702 436 753 q 528 599 496 651 q 553 531 547 567 q 553 459 560 494 q 527 392 546 424 q 479 338 508 360 q 382 297 439 306 q 411 249 397 274 q 440 200 425 224 q 476 121 467 154 q 479 63 485 88 q 457 22 474 39 q 418 -10 440 4 q 367 -40 393 -25 q 317 -69 342 -54 q 288 -21 301 -46 q 258 28 274 4 q 285 44 272 36 q 313 60 299 51 q 338 81 329 69 q 346 108 347 92 q 334 147 344 124 q 301 206 324 169 z "},"·":{"ha":233,"x_min":47,"x_max":190,"o":"m 47 392 q 69 444 47 424 q 119 465 92 465 q 168 444 146 465 q 190 392 190 424 q 168 340 190 360 q 119 319 146 319 q 69 340 92 319 q 47 392 47 360 z "},"º":{"ha":651,"x_min":125,"x_max":528,"o":"m 126 613 q 142 689 126 653 q 184 752 157 726 q 248 794 211 779 q 327 810 285 810 q 406 794 369 810 q 470 752 443 779 q 513 689 497 726 q 528 613 528 653 q 513 537 528 572 q 470 474 497 501 q 406 432 443 447 q 327 416 369 416 q 248 432 285 416 q 184 474 211 447 q 142 537 157 501 q 126 613 126 572 m 209 612 q 219 567 209 588 q 243 531 228 546 q 280 506 259 515 q 325 497 301 497 q 370 506 349 497 q 407 531 391 515 q 432 567 423 546 q 441 612 441 588 q 432 657 441 636 q 407 694 423 678 q 370 720 391 710 q 325 729 349 729 q 280 720 301 729 q 243 694 259 710 q 219 657 228 678 q 209 612 209 636 z "},"¯":{"ha":554,"x_min":118,"x_max":438,"o":"m 118 664 l 118 738 l 438 738 l 438 664 l 118 664 z "},"µ":{"ha":757,"x_min":114,"x_max":631,"o":"m 631 -12 l 515 -12 l 515 71 l 519 133 q 431 28 490 67 q 293 -12 372 -10 q 229 -4 258 -12 l 229 -279 l 114 -279 l 114 521 l 229 521 l 229 196 q 256 131 232 158 q 333 101 281 104 q 402 114 369 101 q 460 149 435 126 q 500 201 485 171 q 515 268 515 232 l 515 521 l 631 521 l 631 -12 z "},"×":{"ha":694,"x_min":151,"x_max":588,"o":"m 506 0 q 437 68 471 35 q 368 136 403 101 l 233 1 q 193 41 214 21 q 153 81 172 61 l 289 217 l 151 354 l 233 436 l 371 299 l 507 435 q 547 394 526 415 q 586 354 567 374 l 451 219 q 519 151 486 185 q 588 82 553 117 l 506 0 z "},"O":{"ha":1167,"x_min":86,"x_max":1081,"o":"m 86 485 q 125 677 86 586 q 231 836 164 768 q 389 944 299 904 q 582 983 479 983 q 774 944 683 983 q 933 836 865 904 q 1041 677 1001 768 q 1081 485 1081 586 q 1041 292 1081 382 q 933 134 1001 201 q 774 28 865 67 q 582 -11 683 -11 q 389 28 479 -11 q 231 134 299 67 q 125 292 164 201 q 86 485 86 382 m 201 485 q 231 334 201 404 q 313 212 261 264 q 435 129 365 160 q 583 99 504 99 q 732 129 663 99 q 853 212 801 160 q 935 334 906 264 q 965 485 965 404 q 935 635 965 565 q 853 758 906 706 q 732 842 801 811 q 583 872 663 872 q 435 842 504 872 q 313 758 365 811 q 231 635 261 706 q 201 485 201 565 z "},"g":{"ha":719,"x_min":68,"x_max":625,"o":"m 185 261 q 230 147 185 193 q 347 100 275 100 q 465 147 419 100 q 510 261 510 193 q 465 376 510 331 q 347 421 419 421 q 230 376 275 421 q 185 261 185 331 m 529 521 l 625 521 l 625 -22 l 625 -83 q 603 -187 625 -139 q 544 -270 582 -235 q 457 -326 507 -306 q 349 -347 407 -347 q 228 -320 286 -347 q 128 -264 169 -293 q 166 -217 147 -240 q 204 -169 185 -193 q 269 -209 232 -190 q 346 -228 306 -228 q 412 -215 382 -228 q 464 -181 442 -203 q 498 -130 486 -160 q 510 -65 510 -100 l 510 28 q 516 41 513 35 q 522 54 519 47 q 504 38 518 49 q 468 16 490 26 q 415 -3 446 6 q 347 -11 385 -11 q 238 10 289 -11 q 149 69 186 32 q 90 155 111 106 q 68 260 68 204 q 90 364 68 314 q 149 451 111 414 q 238 511 186 489 q 347 533 289 533 q 417 522 385 533 q 472 498 449 511 q 510 472 496 485 q 524 456 524 460 q 526 488 524 471 q 529 521 529 504 z "},"d":{"ha":733,"x_min":68,"x_max":625,"o":"m 185 261 q 230 147 185 193 q 347 100 275 100 q 465 147 419 100 q 510 261 510 193 q 465 376 510 331 q 347 421 419 421 q 230 376 275 421 q 185 261 185 331 m 68 261 q 90 366 68 317 q 149 453 111 415 q 238 512 186 490 q 347 533 289 533 q 417 523 385 533 q 472 499 449 513 q 510 474 496 486 q 524 458 524 463 q 517 481 521 469 q 510 503 513 492 l 510 1042 l 625 1042 l 625 0 l 524 0 l 524 44 l 524 57 q 511 42 524 53 q 476 19 499 31 q 422 -3 454 7 q 347 -12 389 -12 q 238 9 289 -12 q 149 68 186 31 q 90 156 111 106 q 68 261 68 206 z "},"a":{"ha":708,"x_min":68,"x_max":625,"o":"m 185 261 q 230 147 185 193 q 347 100 275 100 q 465 147 419 100 q 510 261 510 193 q 465 376 510 331 q 347 421 419 421 q 230 376 275 421 q 185 261 185 331 m 68 260 q 90 364 68 314 q 149 451 111 414 q 238 511 186 489 q 347 533 289 533 q 417 522 385 533 q 472 498 449 511 q 510 472 496 485 q 524 456 524 460 q 526 488 524 471 q 529 521 529 504 l 625 521 l 625 0 l 524 0 l 524 44 l 524 57 q 511 42 524 53 q 476 19 499 31 q 422 -3 454 7 q 347 -12 389 -12 q 238 9 289 -12 q 149 68 186 31 q 90 155 111 106 q 68 260 68 204 z "},"n":{"ha":688,"x_min":114,"x_max":631,"o":"m 114 521 l 215 521 l 215 508 q 220 448 218 475 q 225 388 222 421 q 315 494 253 454 q 451 533 376 533 q 581 490 533 533 q 631 378 628 447 l 631 0 l 515 0 l 515 325 q 488 390 513 363 q 411 419 464 417 q 342 407 375 419 q 285 372 310 394 q 244 319 260 350 q 229 253 229 289 l 229 0 l 114 0 l 114 521 z "}}}
